<?xml version="1.0" encoding="utf-8"?>
<!-- Generator: Adobe Illustrator 20.1.0, SVG Export Plug-In . SVG Version: 6.00 Build 0)  -->
<svg version="1.1" id="Layer_1" xmlns="http://www.w3.org/2000/svg" xmlns:xlink="http://www.w3.org/1999/xlink" x="0px" y="0px"
	 viewBox="0 0 180.2 160" style="enable-background:new 0 0 180.2 160;" xml:space="preserve">
<title>BurgerMenu</title>
<g id="Layer_2">
	<g id="Layer_1-2">
		<g id="HRquYV.tif">
			<path d="M4.1,160c-3.2-2.4-4.2-5.5-4.1-9.5c0.3-7.6,0-15.3,0.1-23c0-5.7,1.9-7.7,7.3-7.7c55.1,0,110.2,0,165.4,0
				c5.3,0,7.2,2,7.3,7.2c0.1,8-0.2,16,0.1,24c0.1,3.9-1.1,6.7-4.1,8.9L4.1,160z"/>
			<path d="M90.6,59.9c27,0,54,0,81,0c6.9,0,8.5,1.6,8.5,8.5c0,7.8,0,15.7,0,23.5c0,5.8-2,7.9-7.7,7.9c-54.8,0-109.7,0-164.5,0
				c-5.8,0-7.8-2.1-7.8-7.9c-0.1-7.8,0-15.7,0-23.5c0-6.9,1.7-8.6,8.5-8.6C35.9,59.9,63.2,59.9,90.6,59.9z"/>
			<path d="M89.9,40c-27,0-54,0-81,0c-7.1,0-8.8-1.7-8.8-8.8c0-7.7,0-15.3,0-23C0.1,2,2,0,8.1,0c54.7,0,109.3,0,164,0
				c6.1,0,8,1.9,8,8.1c0,8,0,16,0,24c0,6.1-1.9,7.9-8.2,7.9C144.6,40,117.2,40,89.9,40z"/>
		</g>
	</g>
</g>
</svg>
