<svg xmlns="http://www.w3.org/2000/svg" viewBox="0 0 53.13 53.02"><defs><style>.cls-1{fill:none;stroke:#fff;stroke-miterlimit:10;stroke-width:2.9px;}.cls-2{fill:#fff;}</style></defs><title>ButtonWishlist</title><g id="Layer_2" data-name="Layer 2"><g id="Layer_1-2" data-name="Layer 1"><ellipse class="cls-1" cx="26.56" cy="26.51" rx="25.11" ry="25.06"/><path class="cls-2" d="M42.74,23.93a4.73,4.73,0,0,1-.13.92,8.94,8.94,0,0,1-2.57,5L28.72,41.15,27.5,42.44a1.21,1.21,0,0,1-1.7.14l-.14-.14L13,29.79a8.87,8.87,0,0,1-2.57-5.39,1.28,1.28,0,0,0-.06-.49V22.67c.08-.5.13-1,.24-1.49a9.23,9.23,0,0,1,15.78-3.92l.1.15.17-.18a9.13,9.13,0,0,1,10.73-2.16,9,9,0,0,1,5.17,6.81c.06.31.08.64.13.92Zm-16.17,16c.06-.06.09-.12.15-.18L38.26,28.23A6.77,6.77,0,1,0,27.67,20a1.76,1.76,0,0,1-.2.3,1.23,1.23,0,0,1-2-.3,6.76,6.76,0,1,0-10.73,8.07Q20.6,34,26.49,39.83Z"/></g></g></svg>