<?xml version="1.0" encoding="utf-8"?>
<!-- Generator: Adobe Illustrator 20.1.0, SVG Export Plug-In . SVG Version: 6.00 Build 0)  -->
<svg version="1.1" id="Layer_1" xmlns="http://www.w3.org/2000/svg" xmlns:xlink="http://www.w3.org/1999/xlink" x="0px" y="0px"
	 viewBox="0 0 72 54.6" style="enable-background:new 0 0 72 54.6;" xml:space="preserve">
<style type="text/css">
	.st0{fill:none;stroke:#FFFFFF;stroke-width:2.9006;stroke-miterlimit:10;}
	.st1{fill:#FFFFFF;}
	.st2{display:none;fill:#FFFFFF;}
</style>
<ellipse class="st0" cx="36" cy="27.3" rx="25.1" ry="25.1"/>
<path class="st1" d="M40,40h-7.1c0.6,0.8,0.9,1.7,0.7,2.7c-0.3,1.8-1.9,3.1-3.7,2.8c-0.7-0.1-1.3-0.4-1.8-0.9
	c-1.2-1.2-1.3-2.7-0.2-4.6h-0.7c-0.5,0-1-0.4-1-0.9c0-0.1,0-0.3,0.1-0.4c0.5-1.5,1.1-3.1,1.7-4.6c0-0.1,0.1-0.3,0.2-0.3
	c0.4-0.2,0.3-0.5,0.2-0.8c-1.8-5.3-3.6-10.5-5.5-15.7c-0.1-0.2-0.2-0.3-0.4-0.4c-1.4-0.6-2.9-1.1-4.3-1.7c-0.6-0.1-0.9-0.7-0.8-1.3
	c0-0.1,0.1-0.3,0.2-0.4c0.2-0.4,0.7-0.6,1.1-0.4c1.4,0.5,2.8,1,4.2,1.6c1.6,0.6,1.7,0.7,2.3,2.5c1.7,5,3.5,10,5.2,15.1
	c0.3,1,0.3,1,1.4,1c4.4,0,8.7,0,13.1,0c0.4,0,0.6-0.1,0.7-0.5c0.2-0.6,0.4-1.3,0.6-2h-0.5H33.4c-0.4,0.1-0.9-0.1-1.2-0.4
	c-0.3-0.3-0.4-0.8-0.2-1.1c0.2-0.4,0.6-0.7,1-0.7h13.3c0.3,0,0.4-0.1,0.5-0.3c0.2-0.8,0.5-1.7,0.8-2.6H31.9c-0.8,0-1.2-0.4-1.2-1.1
	s0.5-1.1,1.3-1.1h16c0.4,0,0.6-0.1,0.7-0.5c0.2-0.7,0.4-1.3,0.6-2H29.7c-0.3,0-0.7,0-1-0.2c-0.4-0.2-0.7-0.7-0.6-1.1
	c0.1-0.5,0.6-0.9,1.1-1c0.1,0,0.2,0,0.3,0h20.8c1.2,0,1.6,0.6,1.3,1.8c-1.5,4.6-2.9,9.2-4.4,13.8c-0.1,0.7-0.7,1.1-1.4,1.1H29.4
	l-1,2.8h17.1c0.2,0,0.5,0,0.7,0c0.5,0.1,0.8,0.5,0.8,1c0,0.3-0.3,0.6-0.6,0.7C46.1,40,45.9,40,45.7,40c-0.2,0-0.4,0-0.6,0
	c0.7,0.9,1,2,0.7,3.1c-0.5,1.8-2.4,2.8-4.1,2.3s-2.8-2.4-2.3-4.1C39.5,40.8,39.7,40.4,40,40L40,40z M30.3,43.7
	c0.8,0,1.5-0.6,1.5-1.4c0,0,0,0,0,0c0-0.8-0.6-1.5-1.4-1.5c-0.8,0-1.5,0.6-1.5,1.4S29.5,43.6,30.3,43.7
	C30.3,43.7,30.3,43.7,30.3,43.7z M42.5,43.7c0.8,0,1.5-0.6,1.5-1.4c0,0,0,0,0-0.1c0-0.8-0.6-1.5-1.4-1.5c-0.8,0-1.5,0.6-1.5,1.4
	C41.1,43,41.7,43.6,42.5,43.7L42.5,43.7z"/>
<path class="st2" d="M52.2,24.7c0,0.3-0.1,0.6-0.1,0.9c-0.3,1.9-1.2,3.6-2.6,5L38.2,41.9l-1.2,1.3c-0.4,0.5-1.2,0.6-1.7,0.1
	c-0.1,0-0.1-0.1-0.1-0.1c-4.2-4.2-8.4-8.4-12.6-12.6c-1.5-1.4-2.4-3.4-2.6-5.4c0-0.2,0-0.3-0.1-0.5c0-0.4,0-0.7,0-1.1v-0.2
	c0.1-0.5,0.1-1,0.2-1.5c1.3-4.9,6.3-7.9,11.2-6.7c1.8,0.4,3.3,1.4,4.6,2.7c0,0,0.1,0.1,0.1,0.1l0.2-0.2c2.7-3,7.1-3.9,10.7-2.2
	c2.8,1.3,4.7,3.8,5.2,6.8c0.1,0.3,0.1,0.6,0.1,0.9L52.2,24.7z M36,40.7c0.1-0.1,0.1-0.1,0.1-0.2c3.8-3.8,7.7-7.7,11.5-11.5
	c2.7-2.6,2.8-6.9,0.2-9.6c-2.6-2.7-6.9-2.8-9.6-0.2c-0.5,0.5-0.9,1-1.3,1.6C37,20.9,37,21,36.9,21.1c-0.5,0.5-1.2,0.5-1.7,0
	c-0.1-0.1-0.2-0.2-0.2-0.3c-1.9-3.2-6-4.4-9.2-2.5c-3.2,1.9-4.4,6-2.5,9.2c0.3,0.5,0.6,0.9,1,1.3c3.9,3.9,7.8,7.9,11.7,11.8L36,40.7
	z"/>
</svg>
