<svg id="Layer_1" data-name="Layer 1" xmlns="http://www.w3.org/2000/svg" viewBox="0 0 72 54.6"><defs><style>.cls-1{fill:#f8bd2f;}</style></defs><title>ButtonCart</title><circle class="cls-1" cx="36" cy="27.3" r="27"/><path d="M40.28,39.52H32.84a3.78,3.78,0,0,1,.77,2.8,3.46,3.46,0,0,1-5.83,2c-1.3-1.25-1.38-2.83-.24-4.79h-.72a1,1,0,0,1-1-1.35c.55-1.6,1.15-3.2,1.73-4.79,0-.12.1-.27.2-.31.44-.19.31-.49.2-.82Q25.09,24,22.23,15.8a.82.82,0,0,0-.42-.43c-1.48-.61-3-1.18-4.47-1.79a1.14,1.14,0,0,1-.65-1.77,1,1,0,0,1,1.19-.43q2.19.8,4.36,1.65c1.72.68,1.73.69,2.38,2.57q2.73,7.88,5.45,15.77c.34,1,.33,1,1.46,1,4.56,0,9.12,0,13.68,0,.39,0,.59-.09.7-.49.17-.67.41-1.32.65-2.06H46l-12.68,0a1.39,1.39,0,0,1-1.21-.4,1.08,1.08,0,0,1-.2-1.2A1.14,1.14,0,0,1,33,27.53H46.93c.28,0,.41-.07.5-.35.25-.87.54-1.73.84-2.67H31.73c-.83,0-1.3-.45-1.28-1.19s.52-1.11,1.32-1.11H48.49c.39,0,.59-.08.69-.49.18-.7.42-1.38.65-2.11H29.48a2.56,2.56,0,0,1-1-.17,1.12,1.12,0,0,1-.63-1.17,1.22,1.22,0,0,1,1.16-1,2.94,2.94,0,0,1,.33,0H51.1c1.24,0,1.71.67,1.34,1.84q-2.32,7.22-4.62,14.45a1.32,1.32,0,0,1-1.49,1.1H29.14l-1.05,2.9H46a5.42,5.42,0,0,1,.71.05.93.93,0,0,1,.17,1.81,3,3,0,0,1-.65.09c-.2,0-.41,0-.68,0a3.61,3.61,0,0,1,.71,3.23,3.48,3.48,0,1,1-6-3.22ZM30.15,43.33a1.51,1.51,0,0,0,1.57-1.48,1.54,1.54,0,1,0-1.57,1.48Zm12.73,0a1.5,1.5,0,0,0,1.58-1.47A1.54,1.54,0,0,0,43,40.27a1.53,1.53,0,1,0-.1,3.06Z"/></svg>