<svg id="Layer_1" data-name="Layer 1" xmlns="http://www.w3.org/2000/svg" viewBox="0 0 72 54.6"><defs><style>.cls-1{fill:#f8bd2f;}</style></defs><title>ButtonWishlist</title><circle class="cls-1" cx="36" cy="27.3" r="27"/><path d="M53.52,24.33c0,.35-.08.7-.14,1a9.69,9.69,0,0,1-2.78,5.39L38.33,43,37,44.39a1.31,1.31,0,0,1-2,0q-6.85-6.85-13.69-13.7a9.61,9.61,0,0,1-2.78-5.84c0-.18,0-.35-.07-.53q0-.59,0-1.18l0-.17c.09-.54.14-1.09.26-1.62a10,10,0,0,1,17.1-4.25,1.36,1.36,0,0,1,.11.16l.18-.2a9.89,9.89,0,0,1,11.63-2.34,9.75,9.75,0,0,1,5.6,7.38c.06.34.09.69.14,1ZM36,41.68c.06-.07.1-.13.16-.19q6.25-6.25,12.5-12.5A7.34,7.34,0,1,0,37.19,20.1a1.91,1.91,0,0,1-.22.32,1.33,1.33,0,0,1-2.15-.33,7.33,7.33,0,1,0-11.63,8.74q6.34,6.39,12.72,12.74Z"/></svg>