<svg id="Layer_1" data-name="Layer 1" xmlns="http://www.w3.org/2000/svg" viewBox="0 0 600 600"><defs><style>.cls-1{font-size:21.45px;}.cls-1,.cls-2,.cls-3,.cls-5,.cls-6{fill:#eda9c0;}.cls-1,.cls-2{font-family:Courier, Courier;}.cls-2{font-size:28.32px;}.cls-3{font-size:49.12px;letter-spacing:-0.02em;}.cls-3,.cls-5{font-family:Montserrat-Bold, Montserrat;font-weight:700;}.cls-4,.cls-5{font-size:28.47px;letter-spacing:-0.02em;}</style></defs><title>InfoBoxTyler</title><g id="Tyler"><text class="cls-1" transform="translate(151.96 412.72)"><tspan xml:space="preserve"> compact disc pre-order</tspan></text><text class="cls-2" transform="translate(147.03 179.24)">TYLER, THE CREATOR</text><text class="cls-3" transform="translate(279.81 468.8)">12<tspan class="cls-4" x="47.75" y="0">,9</tspan></text><text class="cls-5" transform="translate(248.73 453.59)">€</text><path class="cls-6" d="M128.61,215.51l-4.4-11.77H176l-10.89,44.47,1,.49c1.79-2.06,3.56-4.14,5.36-6.19,19.09-21.75,43.41-31,72-29.66a32.35,32.35,0,0,1,13.81,3.46c4.21,2.34,6.92,1.69,10.07-1a41.79,41.79,0,0,1,4.08-2.73l31,31.82c-8,5.54-15.07,10.41-22.11,15.25-7.51,5.16-15,10.37-22.59,15.42-1.51,1-3.15,3.36-5.25.17-14.75-22.36-36.51-15.38-46.86,2.16-6.67,11.32-10.54,23.56-7.11,36.9,2.1,8.17,6,15.37,15,17.53,10.19,2.44,19-.22,26-8.29a16.72,16.72,0,0,0,1.92-2.88c.21-.38.08-1,.13-2H219.78c1.39-4.23,2.46-7.61,3.62-11,2.73-7.84,5.57-15.63,8.26-23.49,1-2.88,2.43-3.51,5.58-3.08,4.16.57,8.49-.15,12.75-.16,13.4,0,26.81-.3,40.2.11,5.55.17,8.27-2,10.2-6.86a97.17,97.17,0,0,1,26-37.13c18.21-16.3,39.36-25.32,64.06-24.36,20.25.79,36.84,8.83,48.14,26.3.33.51,1,.82,2.13,1.73,2.06-6.45,4.15-12.46,5.86-18.56,1.31-4.67,3.16-7.18,8.9-6.61,7.79.78,15.72.19,24.21.19l-5.54-11,1-1c11.47,3.17,22.87,6.64,34.45,9.39,6.14,1.46,12.57,1.78,18.89,2.46,25.8,2.77,37.65,21.31,41.82,40.74,2.34,10.92-.25,20.86-4.61,31.12-4.59,10.8-11.39,19.34-19.94,26.82-2.77,2.42-6.14,4.17-9.43,6.35l31.57,53.92h-33.2c-6.5,0-13-.27-19.49.08-3.67.2-5.29-1.19-6.55-4.41-3.88-10-8-19.86-12.1-29.77-.29-.7-.84-1.29-2.45-1.86l-3.84,35.71H438.26l15.62-115.45h-6.37c0,8.12.83,16.16-.22,23.94a127,127,0,0,1-6.5,27.26,129.42,129.42,0,0,1-13.42,26.67c-10.19,15.21-24.19,26-41.35,33.05-19.39,8-38.8,9.71-58.58,2.86-19.5-6.76-30.44-21.28-34.9-41.07-.22-1-.43-1.92-.68-2.87,0-.11-.25-.18-.72-.49-.48.28-1.51.5-1.71,1-4.07,10.7-11.47,18.75-19.94,26.14-8.21,7.17-17.17,13.06-27.48,16.45-24.83,8.16-48.93,8-71.15-7.87-7.69-5.5-13.2-12.92-18-22.87-1.67,6.45-3,11.44-4.26,16.44-.74,2.9-1.42,5.81-2.14,8.71-2.07,8.3-2.08,8.31-10.33,8.3H28.89c1-4.68,1.87-8.77,2.86-12.83,2.55-10.49,5.32-20.92,7.66-31.45.67-3,2-3.65,4.71-3.6,8.83.15,17.67-.11,26.5.15,3.56.11,5-1.24,5.86-4.5,1.32-5.12,3.06-10.14,4.85-15.9l-9.48,1.19,13.64-44H54.85c2.06-8.78,3.91-16.78,5.82-24.77,1.55-6.46,3.44-12.86,4.7-19.37.63-3.23,2.08-3.91,5-3.89,17.5.11,35,.05,52.5.05Zm215.77,76.67,6.85.46a43.67,43.67,0,0,1-1.56,5.63c-2.72,6.45-5.44,13.05-2.29,19.92,4.39,9.55,15.68,12.19,26.55,6.7a41.53,41.53,0,0,0,22.48-40.1c-.8-10-5.9-17.17-14.92-19.33-6.68-1.6-13.26-1.5-19.52,3A45.67,45.67,0,0,0,344.37,292.18ZM134.19,284l-12.77,42.1h26.85c-3.26-21.92.55-42.34,9-62.66-8.19,0-15.17-.06-22.14.07-.94,0-2.44.73-2.7,1.46-2.24,6.35-4.25,12.78-6.59,20ZM499,286c6.47.88,12.19.47,17.24-2.87s7.54-13.53,5-19c-2.12-4.59-10.52-7.53-16.78-5.74-.8.23-1.9,1.08-2,1.78C501.27,268.66,500.19,277.16,499,286Z"/><path class="cls-6" d="M174.42,403.67v0a.62.62,0,0,1,.2-.51,1,1,0,0,1,.62-.16.65.65,0,0,1,.59.25,2.18,2.18,0,0,1,.16,1v1.95a.78.78,0,0,1-.2.58.82.82,0,0,1-.6.19.76.76,0,0,1-.49-.16,2.48,2.48,0,0,1-.5-.68,3.59,3.59,0,0,0-1.22-1.28,3.12,3.12,0,0,0-1.65-.44,3.71,3.71,0,0,0-2.66,1,3.27,3.27,0,0,0-1,2.49,3.47,3.47,0,0,0,1,2.55,3.39,3.39,0,0,0,2.52,1,4.55,4.55,0,0,0,1.34-.19,4.38,4.38,0,0,0,1.2-.58q.2-.13.53-.39a2,2,0,0,1,1.07-.56.7.7,0,0,1,.73.73q0,.83-1.57,1.69a6.78,6.78,0,0,1-3.33.86,5.25,5.25,0,0,1-3.79-1.46,5.13,5.13,0,0,1,0-7.27,5.21,5.21,0,0,1,3.77-1.46,6.13,6.13,0,0,1,1.6.21A9,9,0,0,1,174.42,403.67Z"/><path class="cls-6" d="M189.64,407.89a4.78,4.78,0,0,1-1.53,3.67,6.23,6.23,0,0,1-7.93,0,5.15,5.15,0,0,1,0-7.33,6.23,6.23,0,0,1,7.92,0A4.77,4.77,0,0,1,189.64,407.89Zm-5.5,3.61a3.6,3.6,0,0,0,2.65-1,3.8,3.8,0,0,0,0-5.21,3.89,3.89,0,0,0-5.27,0,3.82,3.82,0,0,0,0,5.21A3.59,3.59,0,0,0,184.14,411.51Z"/><path class="cls-6" d="M200.9,406.89a5,5,0,0,0-.27-2,.94.94,0,0,0-.91-.52,1.41,1.41,0,0,0-1.23.67,3.25,3.25,0,0,0-.45,1.84v4.36h.19a1.61,1.61,0,0,1,.85.15.66.66,0,0,1,.21.57.8.8,0,0,1-.18.57.72.72,0,0,1-.54.19h-1.33a.74.74,0,0,1-.61-.21,1.64,1.64,0,0,1-.16-.9v-5.54a2,2,0,0,0-.36-1.24,1.17,1.17,0,0,0-1-.46,1.46,1.46,0,0,0-.86.28,2.24,2.24,0,0,0-.68.82v5.77H194a1.56,1.56,0,0,1,.84.16.65.65,0,0,1,.22.57.78.78,0,0,1-.18.59,1,1,0,0,1-.68.16h-2.78a.85.85,0,0,1-.6-.18.75.75,0,0,1-.19-.57.62.62,0,0,1,.24-.57,2,2,0,0,1,1-.15H192v-6.72h-.19a2,2,0,0,1-1-.17.63.63,0,0,1-.27-.58.68.68,0,0,1,.21-.55.93.93,0,0,1,.63-.18H193a.63.63,0,0,1,.46.12.86.86,0,0,1,.13.5,2.86,2.86,0,0,1,.92-.68,2.71,2.71,0,0,1,1.11-.22,2.14,2.14,0,0,1,1.21.32,1.87,1.87,0,0,1,.71,1,2.91,2.91,0,0,1,1-1,2.72,2.72,0,0,1,1.32-.31,2.26,2.26,0,0,1,2,.88,5,5,0,0,1,.62,2.85v4.75h.17a1.6,1.6,0,0,1,.86.16.65.65,0,0,1,.22.57.77.77,0,0,1-.19.57.75.75,0,0,1-.56.19h-1.27a.74.74,0,0,1-.62-.25,1.28,1.28,0,0,1-.2-.8Z"/><path class="cls-6" d="M207.18,415.41h2.51a.84.84,0,0,1,.6.19.75.75,0,0,1,.2.57.73.73,0,0,1-.19.58,1.07,1.07,0,0,1-.69.17H205a.94.94,0,0,1-.63-.19.7.7,0,0,1-.21-.56.64.64,0,0,1,.27-.59,2,2,0,0,1,1-.17h.2V404.53h-.2a2,2,0,0,1-1-.17.64.64,0,0,1-.27-.59.68.68,0,0,1,.21-.55A1,1,0,0,1,205,403h1.59a.77.77,0,0,1,.46.11.38.38,0,0,1,.14.32v1a4.83,4.83,0,0,1,1.58-1.1,5,5,0,0,1,5.38,1.06,4.86,4.86,0,0,1,1.41,3.57,4.58,4.58,0,0,1-1.34,3.39,4.66,4.66,0,0,1-3.43,1.33,5.21,5.21,0,0,1-2-.39,4.13,4.13,0,0,1-1.56-1.13Zm3.25-4.2a3.26,3.26,0,0,0,2.39-.92,3.45,3.45,0,0,0,0-4.72,3.25,3.25,0,0,0-2.38-.93,3.28,3.28,0,1,0,0,6.57Z"/><path class="cls-6" d="M225.16,411.39a6.32,6.32,0,0,1-1.87,1.18,5.5,5.5,0,0,1-2.08.41,3.6,3.6,0,0,1-2.52-.87,2.91,2.91,0,0,1-1-2.26,3,3,0,0,1,1.27-2.57,6.07,6.07,0,0,1,3.58-.91,9.65,9.65,0,0,1,1.23.08,10,10,0,0,1,1.27.25v-.07a2.06,2.06,0,0,0-2.37-2.36,4.6,4.6,0,0,0-1.82.44,4.47,4.47,0,0,1-1.33.44.62.62,0,0,1-.5-.25,1,1,0,0,1-.2-.63q0-.62,1.16-1a8.63,8.63,0,0,1,3-.43,3.79,3.79,0,0,1,2.79.94,3.75,3.75,0,0,1,.94,2.77v4.75h.51a2.1,2.1,0,0,1,1,.16.61.61,0,0,1,.25.57.72.72,0,0,1-.21.57.91.91,0,0,1-.63.19H226a.67.67,0,0,1-.48-.18.92.92,0,0,1-.25-.51Zm-.08-3.3a7.55,7.55,0,0,0-1.12-.28,6.56,6.56,0,0,0-1.07-.09,5,5,0,0,0-2.55.54,1.64,1.64,0,0,0-.93,1.47,1.43,1.43,0,0,0,.58,1.17,2.31,2.31,0,0,0,1.48.46,4.63,4.63,0,0,0,2.47-.7q1.14-.7,1.14-1.45Z"/><path class="cls-6" d="M238.78,403.67v0a.62.62,0,0,1,.2-.51,1,1,0,0,1,.62-.16.65.65,0,0,1,.59.25,2.18,2.18,0,0,1,.16,1v1.95a.78.78,0,0,1-.2.58.82.82,0,0,1-.6.19.76.76,0,0,1-.49-.16,2.48,2.48,0,0,1-.5-.68,3.59,3.59,0,0,0-1.22-1.28,3.12,3.12,0,0,0-1.65-.44,3.71,3.71,0,0,0-2.66,1,3.27,3.27,0,0,0-1,2.49,3.47,3.47,0,0,0,1,2.55,3.39,3.39,0,0,0,2.52,1,4.55,4.55,0,0,0,1.34-.19,4.38,4.38,0,0,0,1.2-.58q.2-.13.53-.39a2,2,0,0,1,1.07-.56.7.7,0,0,1,.73.73q0,.83-1.57,1.69a6.78,6.78,0,0,1-3.33.86,5.25,5.25,0,0,1-3.79-1.46,5.13,5.13,0,0,1,0-7.27,5.21,5.21,0,0,1,3.77-1.46,6.13,6.13,0,0,1,1.6.21A9,9,0,0,1,238.78,403.67Z"/><path class="cls-6" d="M251.36,403.63a1.25,1.25,0,0,1,.75.18.66.66,0,0,1,.24.57.68.68,0,0,1-.22.55,1,1,0,0,1-.66.18h-4.24v3.5a3.89,3.89,0,0,0,.45,2.26,1.87,1.87,0,0,0,1.52.54,6.12,6.12,0,0,0,2.28-.55,6.73,6.73,0,0,1,1.64-.56.67.67,0,0,1,.5.21.71.71,0,0,1,.2.51.82.82,0,0,1-.26.6,2.6,2.6,0,0,1-.87.5,13,13,0,0,1-1.85.6,6.92,6.92,0,0,1-1.54.19,4.81,4.81,0,0,1-2.06-.39,2.62,2.62,0,0,1-1.24-1.17,2.68,2.68,0,0,1-.3-.87,9.74,9.74,0,0,1-.09-1.55v-3.82h-1.78a1,1,0,0,1-.64-.17.71.71,0,0,1-.2-.56.62.62,0,0,1,.27-.59,2.74,2.74,0,0,1,1.16-.16h1.18v-2.7a1,1,0,0,1,.19-.67.77.77,0,0,1,.6-.21.72.72,0,0,1,.64.26,2.51,2.51,0,0,1,.18,1.19v2.13Z"/><path class="cls-6" d="M277.4,412.72a.38.38,0,0,1-.31-.11.72.72,0,0,1-.09-.42v-.86a4.26,4.26,0,0,1-1.57,1.22,4.81,4.81,0,0,1-2,.43,4.38,4.38,0,0,1-3.31-1.41,5.27,5.27,0,0,1,.09-7.11,4.79,4.79,0,0,1,3.55-1.44,4.72,4.72,0,0,1,1.94.38,4,4,0,0,1,1.48,1.13v-4h-.56a2.69,2.69,0,0,1-1.18-.16.64.64,0,0,1-.27-.59.71.71,0,0,1,.21-.57A.92.92,0,0,1,276,399h2.15a.78.78,0,0,1,.46.1.38.38,0,0,1,.14.33v11.8h.47a1.25,1.25,0,0,1,.74.17.64.64,0,0,1,.23.55.75.75,0,0,1-.2.55.72.72,0,0,1-.53.2Zm-6.86-4.7a3.18,3.18,0,0,0,.93,2.37,3.23,3.23,0,0,0,2.37.92,3.17,3.17,0,0,0,2.38-1,3.35,3.35,0,0,0,.93-2.44,3.28,3.28,0,0,0-.93-2.4,3.2,3.2,0,0,0-2.38-.94,3.16,3.16,0,0,0-2.39,1A3.46,3.46,0,0,0,270.54,408Z"/><path class="cls-6" d="M288.1,411.25h3.36a.89.89,0,0,1,.6.17.7.7,0,0,1,.19.55.77.77,0,0,1-.18.59,1,1,0,0,1-.68.16h-8.12a.91.91,0,0,1-.63-.19.72.72,0,0,1-.21-.57.66.66,0,0,1,.22-.54,1,1,0,0,1,.66-.18h3.19v-6.72h-2a1,1,0,0,1-.66-.19.69.69,0,0,1-.23-.56.68.68,0,0,1,.21-.55.93.93,0,0,1,.63-.18h3.07a.76.76,0,0,1,.45.12.37.37,0,0,1,.16.31ZM286.16,400a3,3,0,0,1,.2-1.42,1,1,0,0,1,.87-.29,1.12,1.12,0,0,1,.86.25,2.06,2.06,0,0,1,.21,1.17,2,2,0,0,1-.19,1.12,1.23,1.23,0,0,1-.87.21,1.32,1.32,0,0,1-.87-.2A1.19,1.19,0,0,1,286.16,400Z"/><path class="cls-6" d="M295.43,412v-1.86a1,1,0,0,1,.17-.66.71.71,0,0,1,.56-.2q.43,0,.68.59a3.08,3.08,0,0,0,.3.53,3,3,0,0,0,1.3.91,5.09,5.09,0,0,0,1.9.34,3.15,3.15,0,0,0,1.78-.45,1.37,1.37,0,0,0,.67-1.18,1.12,1.12,0,0,0-.54-1.06,3.92,3.92,0,0,0-1.85-.31h-.58a5.9,5.9,0,0,1-3.26-.74,2.43,2.43,0,0,1-1.12-2.16,2.47,2.47,0,0,1,1.09-2.15,5.31,5.31,0,0,1,3.07-.76,6.35,6.35,0,0,1,1.64.22l.88.23a1.13,1.13,0,0,0,.44-.2,1.2,1.2,0,0,1,.64-.2.59.59,0,0,1,.53.26,1.44,1.44,0,0,1,.17.79v1.23a1.45,1.45,0,0,1-.17.8.6.6,0,0,1-.53.25c-.21,0-.47-.18-.78-.53a7.63,7.63,0,0,0-.53-.56,3.49,3.49,0,0,0-1.18-.74,4.4,4.4,0,0,0-1.48-.22,2.65,2.65,0,0,0-1.59.43,1.31,1.31,0,0,0-.6,1.1,1,1,0,0,0,.62.94,8.19,8.19,0,0,0,2.66.32,5.87,5.87,0,0,1,3.18.76,2.48,2.48,0,0,1,1,2.18,2.7,2.7,0,0,1-1.11,2.26,4.82,4.82,0,0,1-3,.85,9,9,0,0,1-1.33-.11q-.73-.11-1.84-.37a4.93,4.93,0,0,1-.63.36,1.11,1.11,0,0,1-.44.12.66.66,0,0,1-.56-.26A1.21,1.21,0,0,1,295.43,412Z"/><path class="cls-6" d="M316,403.67v0a.62.62,0,0,1,.2-.51,1,1,0,0,1,.62-.16.65.65,0,0,1,.59.25,2.17,2.17,0,0,1,.16,1v1.95a.78.78,0,0,1-.2.58.82.82,0,0,1-.6.19.76.76,0,0,1-.49-.16,2.5,2.5,0,0,1-.5-.68,3.6,3.6,0,0,0-1.22-1.28,3.12,3.12,0,0,0-1.65-.44,3.71,3.71,0,0,0-2.66,1,3.27,3.27,0,0,0-1,2.49,3.47,3.47,0,0,0,1,2.55,3.39,3.39,0,0,0,2.52,1,4.56,4.56,0,0,0,1.34-.19,4.38,4.38,0,0,0,1.2-.58q.2-.13.53-.39a2,2,0,0,1,1.07-.56.7.7,0,0,1,.73.73q0,.83-1.57,1.69a6.78,6.78,0,0,1-3.33.86,5.24,5.24,0,0,1-3.79-1.46,5.13,5.13,0,0,1,0-7.27,5.21,5.21,0,0,1,3.77-1.46,6.13,6.13,0,0,1,1.6.21A9,9,0,0,1,316,403.67Z"/><path class="cls-6" d="M335.91,415.41h2.51a.84.84,0,0,1,.6.19.74.74,0,0,1,.2.57.73.73,0,0,1-.19.58,1.07,1.07,0,0,1-.69.17h-4.62a.94.94,0,0,1-.63-.19.7.7,0,0,1-.21-.56.64.64,0,0,1,.27-.59,2,2,0,0,1,1-.17h.2V404.53h-.2a2,2,0,0,1-1-.17.64.64,0,0,1-.27-.59.68.68,0,0,1,.21-.55,1,1,0,0,1,.63-.18h1.59a.77.77,0,0,1,.46.11.38.38,0,0,1,.14.32v1a4.84,4.84,0,0,1,1.58-1.1,5,5,0,0,1,5.38,1.06,4.86,4.86,0,0,1,1.41,3.57,4.57,4.57,0,0,1-1.34,3.39,4.66,4.66,0,0,1-3.42,1.33,5.21,5.21,0,0,1-2-.39,4.13,4.13,0,0,1-1.56-1.13Zm3.25-4.2a3.26,3.26,0,0,0,2.39-.92,3.45,3.45,0,0,0,0-4.72,3.25,3.25,0,0,0-2.38-.93,3.28,3.28,0,1,0,0,6.57Z"/><path class="cls-6" d="M350.46,411.25h3.48a.89.89,0,0,1,.6.17.7.7,0,0,1,.19.55.77.77,0,0,1-.18.59,1,1,0,0,1-.68.16H347a.89.89,0,0,1-.62-.19.72.72,0,0,1-.21-.57.67.67,0,0,1,.21-.54,1,1,0,0,1,.67-.18h1.82v-6.72h-.71a3,3,0,0,1-1.27-.16.65.65,0,0,1-.25-.59.69.69,0,0,1,.2-.55.91.91,0,0,1,.62-.18h2.39a.71.71,0,0,1,.43.11.38.38,0,0,1,.15.32v1.78a7.32,7.32,0,0,1,2.07-1.85,4.66,4.66,0,0,1,2.33-.61,2.72,2.72,0,0,1,1.51.38,1.12,1.12,0,0,1,.58,1,1,1,0,0,1-.29.68.87.87,0,0,1-.63.3,2,2,0,0,1-.81-.32,2.15,2.15,0,0,0-1-.32,3.21,3.21,0,0,0-1.72.58,10,10,0,0,0-2,1.84Z"/><path class="cls-6" d="M360.82,408.35a3.2,3.2,0,0,0,1,2.34,3.74,3.74,0,0,0,2.56.83,6.53,6.53,0,0,0,2.67-.66,7.25,7.25,0,0,1,1.75-.65.73.73,0,0,1,.52.2.65.65,0,0,1,.21.49.82.82,0,0,1-.22.55,2.29,2.29,0,0,1-.7.49,10.71,10.71,0,0,1-2.16.78,9.36,9.36,0,0,1-2.22.27,5.29,5.29,0,0,1-3.82-1.38A4.83,4.83,0,0,1,359,408a4.92,4.92,0,0,1,1.52-3.75,5.53,5.53,0,0,1,4-1.44,5.21,5.21,0,0,1,3.67,1.34,4.25,4.25,0,0,1,1.46,3.25,1,1,0,0,1-.25.79,2.64,2.64,0,0,1-1.34.2h-7.2Zm.05-1.37h6.82a3,3,0,0,0-1-2,3.22,3.22,0,0,0-2.17-.76,3.73,3.73,0,0,0-2.35.73A3.46,3.46,0,0,0,360.87,407Z"/><path class="cls-6" d="M372.87,408.9a.43.43,0,0,1-.33-.13.51.51,0,0,1-.12-.36V407.3a.42.42,0,0,1,.12-.31.46.46,0,0,1,.33-.12h8.68a.57.57,0,0,1,.38.12.39.39,0,0,1,.14.31v1.11a.46.46,0,0,1-.16.34.5.5,0,0,1-.36.15Z"/><path class="cls-6" d="M395.61,407.89a4.78,4.78,0,0,1-1.53,3.67,6.23,6.23,0,0,1-7.93,0,5.15,5.15,0,0,1,0-7.33,6.23,6.23,0,0,1,7.92,0A4.76,4.76,0,0,1,395.61,407.89Zm-5.5,3.61a3.6,3.6,0,0,0,2.64-1,3.8,3.8,0,0,0,0-5.21,3.89,3.89,0,0,0-5.27,0,3.82,3.82,0,0,0,0,5.21A3.59,3.59,0,0,0,390.11,411.51Z"/><path class="cls-6" d="M402,411.25h3.48a.89.89,0,0,1,.6.17.7.7,0,0,1,.19.55.77.77,0,0,1-.18.59,1,1,0,0,1-.68.16h-6.85a.89.89,0,0,1-.62-.19.72.72,0,0,1-.21-.57.67.67,0,0,1,.21-.54,1,1,0,0,1,.67-.18h1.82v-6.72h-.71a3,3,0,0,1-1.27-.16.65.65,0,0,1-.25-.59.69.69,0,0,1,.2-.55A.91.91,0,0,1,399,403h2.39a.71.71,0,0,1,.43.11.38.38,0,0,1,.15.32v1.78A7.32,7.32,0,0,1,404,403.4a4.66,4.66,0,0,1,2.33-.61,2.72,2.72,0,0,1,1.51.38,1.12,1.12,0,0,1,.58,1,1,1,0,0,1-.29.68.87.87,0,0,1-.63.3,2,2,0,0,1-.81-.32,2.15,2.15,0,0,0-1-.32,3.21,3.21,0,0,0-1.72.58,10,10,0,0,0-2,1.84Z"/><path class="cls-6" d="M419,412.72a.38.38,0,0,1-.31-.11.71.71,0,0,1-.09-.42v-.86a4.27,4.27,0,0,1-1.57,1.22,4.82,4.82,0,0,1-2,.43,4.39,4.39,0,0,1-3.32-1.41,5.27,5.27,0,0,1,.09-7.11,4.79,4.79,0,0,1,3.55-1.44,4.72,4.72,0,0,1,1.94.38,4,4,0,0,1,1.48,1.13v-4h-.55a2.69,2.69,0,0,1-1.18-.16.64.64,0,0,1-.27-.59.71.71,0,0,1,.21-.57.91.91,0,0,1,.62-.19h2.15a.78.78,0,0,1,.46.1.38.38,0,0,1,.14.33v11.8h.47a1.25,1.25,0,0,1,.74.17.64.64,0,0,1,.23.55.75.75,0,0,1-.2.55.72.72,0,0,1-.53.2Zm-6.86-4.7a3.19,3.19,0,0,0,.93,2.37,3.23,3.23,0,0,0,2.37.92,3.17,3.17,0,0,0,2.38-1,3.35,3.35,0,0,0,.93-2.44,3.28,3.28,0,0,0-.93-2.4,3.2,3.2,0,0,0-2.38-.94,3.15,3.15,0,0,0-2.39,1A3.46,3.46,0,0,0,412.14,408Z"/><path class="cls-6" d="M425.18,408.35a3.2,3.2,0,0,0,1,2.34,3.74,3.74,0,0,0,2.56.83,6.53,6.53,0,0,0,2.67-.66,7.25,7.25,0,0,1,1.75-.65.73.73,0,0,1,.52.2.65.65,0,0,1,.21.49.82.82,0,0,1-.22.55,2.29,2.29,0,0,1-.7.49,10.71,10.71,0,0,1-2.16.78,9.36,9.36,0,0,1-2.22.27,5.29,5.29,0,0,1-3.82-1.38,4.83,4.83,0,0,1-1.43-3.65,4.92,4.92,0,0,1,1.52-3.75,5.53,5.53,0,0,1,4-1.44,5.21,5.21,0,0,1,3.67,1.34,4.25,4.25,0,0,1,1.46,3.25,1,1,0,0,1-.25.79,2.64,2.64,0,0,1-1.34.2h-7.2Zm.05-1.37h6.82a3,3,0,0,0-1-2,3.22,3.22,0,0,0-2.17-.76,3.73,3.73,0,0,0-2.35.73A3.46,3.46,0,0,0,425.24,407Z"/><path class="cls-6" d="M440.57,411.25H444a.89.89,0,0,1,.6.17.7.7,0,0,1,.19.55.77.77,0,0,1-.18.59,1,1,0,0,1-.68.16h-6.85a.89.89,0,0,1-.62-.19.72.72,0,0,1-.21-.57.67.67,0,0,1,.21-.54,1,1,0,0,1,.67-.18H439v-6.72h-.71a3,3,0,0,1-1.27-.16.65.65,0,0,1-.25-.59.69.69,0,0,1,.2-.55.91.91,0,0,1,.62-.18H440a.71.71,0,0,1,.43.11.38.38,0,0,1,.15.32v1.78a7.32,7.32,0,0,1,2.07-1.85,4.66,4.66,0,0,1,2.33-.61,2.72,2.72,0,0,1,1.51.38,1.12,1.12,0,0,1,.58,1,1,1,0,0,1-.29.68.87.87,0,0,1-.63.3,2,2,0,0,1-.81-.32,2.15,2.15,0,0,0-1-.32,3.21,3.21,0,0,0-1.72.58,10,10,0,0,0-2,1.84Z"/><path class="cls-6" d="M150.35,168.42a2.67,2.67,0,0,1-.24,1.32,1,1,0,0,1-.84.28,1,1,0,0,1-.73-.26,1.06,1.06,0,0,1-.24-.75q0-.43,0-.65l.14-4.56a1,1,0,0,1,.28-.74,1.12,1.12,0,0,1,.77-.23h12a1.12,1.12,0,0,1,.77.23,1,1,0,0,1,.26.74l.15,4.56c0,.17,0,.32,0,.47s0,.22,0,.21a1,1,0,0,1-.26.74,1.13,1.13,0,0,1-.79.24.89.89,0,0,1-.76-.28,2.75,2.75,0,0,1-.23-1.32l-.14-3.6h-4v12.46h2.67a1.27,1.27,0,0,1,.84.23.91.91,0,0,1,.26.73,1,1,0,0,1-.25.74,1,1,0,0,1-.72.26h-7.76a1,1,0,0,1-.72-.26,1,1,0,0,1-.25-.74.9.9,0,0,1,.27-.73,1.47,1.47,0,0,1,.92-.22h2.59V164.83h-4Z"/><path class="cls-6" d="M175.56,177.29a2.88,2.88,0,0,1,1.36.2.85.85,0,0,1,.3.75.9.9,0,0,1-.3.78,2.26,2.26,0,0,1-1.2.21h-6.57A2.21,2.21,0,0,1,168,179a.91.91,0,0,1-.29-.78.81.81,0,0,1,.33-.75,2.94,2.94,0,0,1,1.35-.2h2V172.7l-4.6-7.87h-.24a2,2,0,0,1-1.13-.22.89.89,0,0,1-.3-.77,1,1,0,0,1,.26-.75,1.13,1.13,0,0,1,.8-.24h3.79a1.91,1.91,0,0,1,1.1.22.93.93,0,0,1,.28.77.85.85,0,0,1-.34.77,2.43,2.43,0,0,1-1.24.22h-.46l3.35,6,3.47-6h-.57a1.77,1.77,0,0,1-1-.22.92.92,0,0,1-.29-.77,1,1,0,0,1,.25-.79,2.34,2.34,0,0,1,1.26-.21h2.54a2.69,2.69,0,0,1,1.35.21,1.17,1.17,0,0,1,0,1.56,2,2,0,0,1-1.13.22h-.22l-4.7,8.06v4.4Z"/><path class="cls-6" d="M194.73,173.66a2.77,2.77,0,0,1,.21-1.34.89.89,0,0,1,.79-.3,1,1,0,0,1,.75.26,1.1,1.1,0,0,1,.25.79v5.14a1,1,0,0,1-.26.75,1,1,0,0,1-.73.27H182.81a.88.88,0,0,1-1-1,.85.85,0,0,1,.3-.75,2.84,2.84,0,0,1,1.35-.2h1.73V164.83h-1.73a2.68,2.68,0,0,1-1.33-.21.88.88,0,0,1-.31-.78,1,1,0,0,1,.26-.75,1.13,1.13,0,0,1,.8-.24h7.48a1.06,1.06,0,0,1,.76.25,1,1,0,0,1,.26.75.88.88,0,0,1-.31.78,2.76,2.76,0,0,1-1.36.21h-2.32v12.46h7.36Z"/><path class="cls-6" d="M200.59,179.24h-.65a1,1,0,0,1-.75-.25,1,1,0,0,1-.26-.75.85.85,0,0,1,.3-.75,2.88,2.88,0,0,1,1.36-.2h.89V164.83h-.89a2.72,2.72,0,0,1-1.35-.21.88.88,0,0,1-.31-.78,1,1,0,0,1,.26-.75,1.1,1.1,0,0,1,.78-.24h12a.89.89,0,0,1,.71.28,1.24,1.24,0,0,1,.24.82v3.26a1.73,1.73,0,0,1-.21,1,.88.88,0,0,1-.75.28.89.89,0,0,1-.78-.3,2.76,2.76,0,0,1-.21-1.37v-2h-7.36v4.66h3.62v-.73a1.93,1.93,0,0,1,.2-1,.79.79,0,0,1,.7-.29.72.72,0,0,1,.67.31,3,3,0,0,1,.19,1.33v2.57a2.84,2.84,0,0,1-.19,1.33.77.77,0,0,1-.69.29.72.72,0,0,1-.68-.33,3,3,0,0,1-.19-1.29v-.48h-3.62v6.13H211V175a2.76,2.76,0,0,1,.21-1.37.89.89,0,0,1,.78-.3.87.87,0,0,1,.74.28,1.89,1.89,0,0,1,.21,1.07v3.49a1.06,1.06,0,0,1-.25.76.93.93,0,0,1-.71.26Z"/><path class="cls-6" d="M220.43,177.29h.94a2.14,2.14,0,0,1,1.13.22.81.81,0,0,1,.33.73.91.91,0,0,1-.29.77,1.9,1.9,0,0,1-1.09.22H216.8a1,1,0,0,1-.72-.26,1,1,0,0,1-.25-.74.89.89,0,0,1,.28-.73,1.47,1.47,0,0,1,.91-.22h1.26V164.7h-.8a2.92,2.92,0,0,1-1.34-.19.8.8,0,0,1-.3-.73.94.94,0,0,1,.24-.71,1,1,0,0,1,.73-.23h5.84a18.21,18.21,0,0,1,3.16.2,4.73,4.73,0,0,1,1.76.68,4.4,4.4,0,0,1,1.46,1.65,4.7,4.7,0,0,1,.53,2.2,4.07,4.07,0,0,1-1,2.73,5.11,5.11,0,0,1-2.72,1.58,3.23,3.23,0,0,1,.64.48,4.27,4.27,0,0,1,.55.66l2.78,4.26h.46a1.9,1.9,0,0,1,1.06.21.86.86,0,0,1,.29.74,1,1,0,0,1-.24.74.93.93,0,0,1-.71.26h-1.56q-.68,0-1.33-1l-.12-.14-2.66-4a6.08,6.08,0,0,0-1.35-1.59,2.47,2.47,0,0,0-1.4-.36h-1.84Zm0-12.58v5.59h2.86a5,5,0,0,0,2.91-.7,2.4,2.4,0,0,0,1-2.08,2.45,2.45,0,0,0-1-2.1,4.77,4.77,0,0,0-2.85-.71Z"/><path class="cls-6" d="M238.87,175.38a1,1,0,0,1,.29-.6,1.06,1.06,0,0,1,.61-.13h3a.59.59,0,0,1,.33.08.25.25,0,0,1,.12.21.8.8,0,0,1,0,.18.83.83,0,0,1-.08.21l-3.8,7.91a.86.86,0,0,1-.26.33.59.59,0,0,1-.36.13h-.09l-.16-.06-1-.36a.94.94,0,0,1-.33-.22.42.42,0,0,1-.11-.29v-.21a.35.35,0,0,1,0-.13Z"/><path class="cls-6" d="M269.33,168.42a2.67,2.67,0,0,1-.24,1.32,1,1,0,0,1-.84.28,1,1,0,0,1-.73-.26,1.06,1.06,0,0,1-.24-.75q0-.43,0-.65l.14-4.56a1,1,0,0,1,.28-.74,1.12,1.12,0,0,1,.77-.23h12a1.12,1.12,0,0,1,.77.23,1,1,0,0,1,.26.74l.15,4.56c0,.17,0,.32,0,.47s0,.22,0,.21a1,1,0,0,1-.26.74,1.13,1.13,0,0,1-.79.24.89.89,0,0,1-.76-.28,2.75,2.75,0,0,1-.23-1.32l-.14-3.6h-4v12.46h2.67a1.27,1.27,0,0,1,.84.23.91.91,0,0,1,.26.73,1,1,0,0,1-.25.74,1,1,0,0,1-.72.26h-7.76a1,1,0,0,1-.72-.26,1,1,0,0,1-.25-.74.9.9,0,0,1,.27-.73,1.47,1.47,0,0,1,.92-.22h2.59V164.83h-4Z"/><path class="cls-6" d="M288.19,177.29h.93a2.18,2.18,0,0,1,1.15.22.81.81,0,0,1,.33.73.91.91,0,0,1-.29.78,2.44,2.44,0,0,1-1.27.21h-3.65a1.06,1.06,0,0,1-.77-.25,1,1,0,0,1-.26-.75.85.85,0,0,1,.3-.75,2.12,2.12,0,0,1,1.13-.21H286V164.83h-.22a2.08,2.08,0,0,1-1.14-.22.89.89,0,0,1-.31-.77,1,1,0,0,1,.26-.75,1.12,1.12,0,0,1,.79-.24h3.48a2.85,2.85,0,0,1,1.4.21.9.9,0,0,1,.3.78.82.82,0,0,1-.37.77,3,3,0,0,1-1.41.22h-.62v4.81h6.62v-4.81h-.94a2,2,0,0,1-1.13-.24.86.86,0,0,1-.34-.76.88.88,0,0,1,.31-.78,3.3,3.3,0,0,1,1.53-.21h3.37a1,1,0,0,1,.75.25,1,1,0,0,1,.26.75.92.92,0,0,1-.29.77,1.74,1.74,0,0,1-1,.23H297v12.46h.22a2.11,2.11,0,0,1,1.13.21.84.84,0,0,1,.3.74.92.92,0,0,1-.29.78,2.64,2.64,0,0,1-1.34.21h-2.86a2.94,2.94,0,0,1-1.42-.21.89.89,0,0,1-.3-.78.79.79,0,0,1,.36-.75,3,3,0,0,1,1.37-.21h.68v-5.75h-6.62Z"/><path class="cls-6" d="M302.57,179.24h-.65a1,1,0,0,1-.75-.25,1,1,0,0,1-.26-.75.85.85,0,0,1,.3-.75,2.88,2.88,0,0,1,1.36-.2h.88V164.83h-.88a2.72,2.72,0,0,1-1.35-.21.88.88,0,0,1-.31-.78,1,1,0,0,1,.26-.75,1.1,1.1,0,0,1,.78-.24h12a.88.88,0,0,1,.71.28,1.23,1.23,0,0,1,.24.82v3.26a1.73,1.73,0,0,1-.21,1,.88.88,0,0,1-.75.28.89.89,0,0,1-.78-.3,2.77,2.77,0,0,1-.21-1.37v-2h-7.36v4.66h3.62v-.73a1.92,1.92,0,0,1,.2-1,.79.79,0,0,1,.7-.29.72.72,0,0,1,.67.31,3,3,0,0,1,.19,1.33v2.57a2.83,2.83,0,0,1-.2,1.33.77.77,0,0,1-.69.29.71.71,0,0,1-.68-.33,3,3,0,0,1-.19-1.29v-.48h-3.62v6.13H313V175a2.77,2.77,0,0,1,.21-1.37.89.89,0,0,1,.78-.3.88.88,0,0,1,.74.28,1.9,1.9,0,0,1,.21,1.07v3.49a1.06,1.06,0,0,1-.25.76.93.93,0,0,1-.71.26Z"/><path class="cls-6" d="M346.85,163.29a1,1,0,0,1,.39-.53,1.39,1.39,0,0,1,.72-.15.89.89,0,0,1,.72.25,1.72,1.72,0,0,1,.21,1q0,1.35,0,2.52t0,1a1.29,1.29,0,0,1-.22.88,1.08,1.08,0,0,1-.79.23q-.91,0-1.19-1.3l-.15-.59a2.84,2.84,0,0,0-1.26-1.69,4.15,4.15,0,0,0-2.34-.66,4.84,4.84,0,0,0-3.93,1.79,8.48,8.48,0,0,0,0,9.6,4.92,4.92,0,0,0,4,1.79,6.17,6.17,0,0,0,1.63-.23,7.16,7.16,0,0,0,1.63-.68,9.36,9.36,0,0,0,1-.66,2.05,2.05,0,0,1,.93-.46,1,1,0,0,1,.73.28.93.93,0,0,1,.3.7,1.22,1.22,0,0,1-.32.8,5.58,5.58,0,0,1-1.21.94,9.15,9.15,0,0,1-2.34,1.13,8.36,8.36,0,0,1-2.48.36,7.34,7.34,0,0,1-5.64-2.41,9.64,9.64,0,0,1,0-12.36,7.36,7.36,0,0,1,5.67-2.46,8.17,8.17,0,0,1,1.86.22A12.55,12.55,0,0,1,346.85,163.29Z"/><path class="cls-6" d="M356.4,177.29h.94a2.14,2.14,0,0,1,1.13.22.81.81,0,0,1,.33.73.92.92,0,0,1-.29.77,1.91,1.91,0,0,1-1.09.22h-4.65a1,1,0,0,1-.72-.26,1,1,0,0,1-.25-.74.88.88,0,0,1,.28-.73,1.47,1.47,0,0,1,.91-.22h1.26V164.7h-.8a2.92,2.92,0,0,1-1.34-.19.8.8,0,0,1-.3-.73.94.94,0,0,1,.24-.71,1,1,0,0,1,.73-.23h5.84a18.22,18.22,0,0,1,3.16.2,4.73,4.73,0,0,1,1.76.68,4.38,4.38,0,0,1,1.46,1.65,4.69,4.69,0,0,1,.53,2.2,4.06,4.06,0,0,1-1,2.73,5.1,5.1,0,0,1-2.72,1.58,3.23,3.23,0,0,1,.64.48,4.27,4.27,0,0,1,.55.66l2.78,4.26h.46a1.89,1.89,0,0,1,1.06.21.86.86,0,0,1,.29.74,1,1,0,0,1-.24.74.93.93,0,0,1-.71.26h-1.56q-.68,0-1.33-1l-.12-.14-2.66-4a6.09,6.09,0,0,0-1.35-1.59,2.47,2.47,0,0,0-1.4-.36H356.4Zm0-12.58v5.59h2.86a5,5,0,0,0,2.91-.7,2.39,2.39,0,0,0,1-2.08,2.45,2.45,0,0,0-1-2.1,4.77,4.77,0,0,0-2.85-.71Z"/><path class="cls-6" d="M370.56,179.24h-.65a1,1,0,0,1-.75-.25,1,1,0,0,1-.26-.75.85.85,0,0,1,.3-.75,2.88,2.88,0,0,1,1.36-.2h.88V164.83h-.88a2.72,2.72,0,0,1-1.35-.21.88.88,0,0,1-.31-.78,1,1,0,0,1,.26-.75,1.1,1.1,0,0,1,.78-.24h12a.89.89,0,0,1,.71.28,1.23,1.23,0,0,1,.24.82v3.26a1.73,1.73,0,0,1-.21,1,.88.88,0,0,1-.75.28.89.89,0,0,1-.78-.3,2.77,2.77,0,0,1-.21-1.37v-2h-7.36v4.66h3.62v-.73a1.93,1.93,0,0,1,.2-1,.79.79,0,0,1,.7-.29.72.72,0,0,1,.67.31,3,3,0,0,1,.19,1.33v2.57a2.84,2.84,0,0,1-.19,1.33.77.77,0,0,1-.69.29.72.72,0,0,1-.68-.33,3,3,0,0,1-.19-1.29v-.48h-3.62v6.13H381V175a2.77,2.77,0,0,1,.21-1.37.89.89,0,0,1,.78-.3.87.87,0,0,1,.74.28,1.89,1.89,0,0,1,.21,1.07v3.49a1.06,1.06,0,0,1-.25.76.93.93,0,0,1-.71.26Z"/><path class="cls-6" d="M391.33,164.83h-2a2.23,2.23,0,0,1-1.18-.23.85.85,0,0,1-.34-.77.9.9,0,0,1,.3-.78,3.57,3.57,0,0,1,1.63-.21h3.94a1.85,1.85,0,0,1,1,.2,1.73,1.73,0,0,1,.49.74l5.41,13.51h.24a1.8,1.8,0,0,1,1,.21.88.88,0,0,1,.28.75,1,1,0,0,1-.26.78,1.63,1.63,0,0,1-1,.21h-3.76a2.68,2.68,0,0,1-1.35-.21.9.9,0,0,1-.3-.78.82.82,0,0,1,.33-.74,2.42,2.42,0,0,1,1.22-.21h1.29L397,174h-7l-1.19,3.29h1.34a2.5,2.5,0,0,1,1.24.21.81.81,0,0,1,.33.74.9.9,0,0,1-.3.78,2.56,2.56,0,0,1-1.31.21h-3.64a2.18,2.18,0,0,1-1.18-.21.92.92,0,0,1-.29-.78.86.86,0,0,1,.29-.75,2.08,2.08,0,0,1,1.12-.21h.26Zm-.71,7.33h5.66l-3-7.33Z"/><path class="cls-6" d="M405.3,168.42a2.67,2.67,0,0,1-.24,1.32,1,1,0,0,1-.84.28,1,1,0,0,1-.73-.26,1.06,1.06,0,0,1-.24-.75q0-.43,0-.65l.14-4.56a1,1,0,0,1,.28-.74,1.12,1.12,0,0,1,.77-.23h12a1.12,1.12,0,0,1,.77.23,1,1,0,0,1,.26.74l.15,4.56c0,.17,0,.32,0,.47s0,.22,0,.21a1,1,0,0,1-.26.74,1.13,1.13,0,0,1-.79.24.89.89,0,0,1-.76-.28,2.76,2.76,0,0,1-.24-1.32l-.14-3.6h-4v12.46h2.67a1.27,1.27,0,0,1,.84.23.91.91,0,0,1,.26.73,1,1,0,0,1-.25.74,1,1,0,0,1-.72.26H406.6a1,1,0,0,1-.72-.26,1,1,0,0,1-.25-.74.9.9,0,0,1,.27-.73,1.47,1.47,0,0,1,.92-.22h2.59V164.83h-4Z"/><path class="cls-6" d="M434.95,171a9.15,9.15,0,0,1-2.1,6.22,7.15,7.15,0,0,1-10.74,0,10.27,10.27,0,0,1,0-12.44,7.18,7.18,0,0,1,10.76,0A9.16,9.16,0,0,1,434.95,171Zm-7.48,6.69a4.33,4.33,0,0,0,3.66-1.78,9.71,9.71,0,0,0,0-9.83,4.66,4.66,0,0,0-7.32,0,9.78,9.78,0,0,0,0,9.84A4.31,4.31,0,0,0,427.46,177.72Z"/><path class="cls-6" d="M441.38,177.29h.94a2.14,2.14,0,0,1,1.13.22.81.81,0,0,1,.33.73.92.92,0,0,1-.29.77,1.91,1.91,0,0,1-1.09.22h-4.65A1,1,0,0,1,437,179a1,1,0,0,1-.25-.74.88.88,0,0,1,.28-.73,1.47,1.47,0,0,1,.91-.22h1.26V164.7h-.8a2.92,2.92,0,0,1-1.34-.19.8.8,0,0,1-.3-.73.94.94,0,0,1,.24-.71,1,1,0,0,1,.73-.23h5.84a18.22,18.22,0,0,1,3.16.2,4.73,4.73,0,0,1,1.76.68,4.38,4.38,0,0,1,1.46,1.65,4.69,4.69,0,0,1,.53,2.2,4.06,4.06,0,0,1-1,2.73,5.1,5.1,0,0,1-2.72,1.58,3.23,3.23,0,0,1,.64.48,4.27,4.27,0,0,1,.55.66l2.78,4.26h.46a1.89,1.89,0,0,1,1.06.21.86.86,0,0,1,.29.74,1,1,0,0,1-.24.74.93.93,0,0,1-.71.26h-1.56q-.68,0-1.33-1l-.12-.14-2.66-4a6.09,6.09,0,0,0-1.35-1.59,2.47,2.47,0,0,0-1.4-.36h-1.84Zm0-12.58v5.59h2.86a5,5,0,0,0,2.91-.7,2.39,2.39,0,0,0,1-2.08,2.45,2.45,0,0,0-1-2.1,4.77,4.77,0,0,0-2.85-.71Z"/><path class="cls-6" d="M286.49,468.8V441.39h-6.34v-7h15.08V468.8Z"/><path class="cls-6" d="M325.84,443c0,3.73-2.75,7.61-6.48,11.44l-7,7.42h14.49v6.93H301.13v-5.65l12.28-13c1.92-2,3.29-4.32,3.29-5.89,0-2-1.42-3.14-3.88-3.14-2.8,0-6.24,1.67-9.38,4.37l-3.29-6.29c4.32-3.24,9-5.16,13.95-5.16C320.92,434,325.84,437.56,325.84,443Z"/><path class="cls-6" d="M333.37,466.63a3.37,3.37,0,0,1-.63,1.88l-2.08,3h-2.33l1.28-3a2.12,2.12,0,0,1-.94-1.85A2.27,2.27,0,0,1,331,464.3,2.23,2.23,0,0,1,333.37,466.63Z"/><path class="cls-6" d="M335.1,467.34l1.94-3.53a7.21,7.21,0,0,0,4.18,1.28c3.19,0,4.73-2,4.67-5.3a5.48,5.48,0,0,1-4.75,2.13,6,6,0,0,1-6.43-6.43c0-4.21,3-6.89,7.46-6.89,5.35,0,8.6,3.79,8.6,9.91,0,6.35-3.62,10.48-9.23,10.48A13.24,13.24,0,0,1,335.1,467.34Zm10.25-11.9a3,3,0,0,0-6,.08,2.55,2.55,0,0,0,2.88,2.71A2.74,2.74,0,0,0,345.35,455.44Z"/><path class="cls-6" d="M270.65,450.17a11.93,11.93,0,0,1-8.23,3.64,10.2,10.2,0,0,1-10-7h-2.9v-2.14H252c0-.34-.06-.71-.06-1.08s0-.68.06-1h-2.48v-2.14h2.9c1.34-4.13,5.27-6.95,10.19-6.95a11.51,11.51,0,0,1,8,3.36l-2.9,3.47a6.87,6.87,0,0,0-5-2.59,5.35,5.35,0,0,0-4.73,2.71h6.44v2.14h-7.2c0,.31-.06.63-.06.94a7.43,7.43,0,0,0,.09,1.14h7.18v2.14H258a5.37,5.37,0,0,0,4.64,2.59,7.53,7.53,0,0,0,5-2.33Z"/><path class="cls-6" d="M128.61,215.51l-4.4-11.77H176l-10.89,44.47,1,.49c1.79-2.06,3.56-4.14,5.36-6.19,19.09-21.75,43.41-31,72-29.66a32.35,32.35,0,0,1,13.81,3.46c4.21,2.34,6.92,1.69,10.07-1a41.79,41.79,0,0,1,4.08-2.73l31,31.82c-8,5.54-15.07,10.41-22.11,15.25-7.51,5.16-15,10.37-22.59,15.42-1.51,1-3.15,3.36-5.25.17-14.75-22.36-36.51-15.38-46.86,2.16-6.67,11.32-10.54,23.56-7.11,36.9,2.1,8.17,6,15.37,15,17.53,10.19,2.44,19-.22,26-8.29a16.72,16.72,0,0,0,1.92-2.88c.21-.38.08-1,.13-2H219.78c1.39-4.23,2.46-7.61,3.62-11,2.73-7.84,5.57-15.63,8.26-23.49,1-2.88,2.43-3.51,5.58-3.08,4.16.57,8.49-.15,12.75-.16,13.4,0,26.81-.3,40.2.11,5.55.17,8.27-2,10.2-6.86a97.17,97.17,0,0,1,26-37.13c18.21-16.3,39.36-25.32,64.06-24.36,20.25.79,36.84,8.83,48.14,26.3.33.51,1,.82,2.13,1.73,2.06-6.45,4.15-12.46,5.86-18.56,1.31-4.67,3.16-7.18,8.9-6.61,7.79.78,15.72.19,24.21.19l-5.54-11,1-1c11.47,3.17,22.87,6.64,34.45,9.39,6.14,1.46,12.57,1.78,18.89,2.46,25.8,2.77,37.65,21.31,41.82,40.74,2.34,10.92-.25,20.86-4.61,31.12-4.59,10.8-11.39,19.34-19.94,26.82-2.77,2.42-6.14,4.17-9.43,6.35l31.57,53.92h-33.2c-6.5,0-13-.27-19.49.08-3.67.2-5.29-1.19-6.55-4.41-3.88-10-8-19.86-12.1-29.77-.29-.7-.84-1.29-2.45-1.86l-3.84,35.71H438.26l15.62-115.45h-6.37c0,8.12.83,16.16-.22,23.94a127,127,0,0,1-6.5,27.26,129.42,129.42,0,0,1-13.42,26.67c-10.19,15.21-24.19,26-41.35,33.05-19.39,8-38.8,9.71-58.58,2.86-19.5-6.76-30.44-21.28-34.9-41.07-.22-1-.43-1.92-.68-2.87,0-.11-.25-.18-.72-.49-.48.28-1.51.5-1.71,1-4.07,10.7-11.47,18.75-19.94,26.14-8.21,7.17-17.17,13.06-27.48,16.45-24.83,8.16-48.93,8-71.15-7.87-7.69-5.5-13.2-12.92-18-22.87-1.67,6.45-3,11.44-4.26,16.44-.74,2.9-1.42,5.81-2.14,8.71-2.07,8.3-2.08,8.31-10.33,8.3H28.89c1-4.68,1.87-8.77,2.86-12.83,2.55-10.49,5.32-20.92,7.66-31.45.67-3,2-3.65,4.71-3.6,8.83.15,17.67-.11,26.5.15,3.56.11,5-1.24,5.86-4.5,1.32-5.12,3.06-10.14,4.85-15.9l-9.48,1.19,13.64-44H54.85c2.06-8.78,3.91-16.78,5.82-24.77,1.55-6.46,3.44-12.86,4.7-19.37.63-3.23,2.08-3.91,5-3.89,17.5.11,35,.05,52.5.05Zm215.77,76.67,6.85.46a43.67,43.67,0,0,1-1.56,5.63c-2.72,6.45-5.44,13.05-2.29,19.92,4.39,9.55,15.68,12.19,26.55,6.7a41.53,41.53,0,0,0,22.48-40.1c-.8-10-5.9-17.17-14.92-19.33-6.68-1.6-13.26-1.5-19.52,3A45.67,45.67,0,0,0,344.37,292.18ZM134.19,284l-12.77,42.1h26.85c-3.26-21.92.55-42.34,9-62.66-8.19,0-15.17-.06-22.14.07-.94,0-2.44.73-2.7,1.46-2.24,6.35-4.25,12.78-6.59,20ZM499,286c6.47.88,12.19.47,17.24-2.87s7.54-13.53,5-19c-2.12-4.59-10.52-7.53-16.78-5.74-.8.23-1.9,1.08-2,1.78C501.27,268.66,500.19,277.16,499,286Z"/></g></svg>