<svg id="Layer_1" data-name="Layer 1" xmlns="http://www.w3.org/2000/svg" viewBox="0 0 600 600"><defs><style>.cls-1{fill:#ef4136;}.cls-2{fill:#fff;}</style></defs><title>Info Box Kendrick</title><g id="Kendric"><path class="cls-1" d="M33,334.92V331.7h3.92q5.14,0,7.88-1.61a9.86,9.86,0,0,0,4-4.4q.78-1.83.78-11V237.07q0-9.05-1-11.32a8.72,8.72,0,0,0-3.87-4,15.64,15.64,0,0,0-7.88-1.7H33v-3.22H85.86q21.15,0,34,5.75a50.34,50.34,0,0,1,23.9,21.33,68,68,0,0,1,4.14,55.24,52.71,52.71,0,0,1-10.36,17.32,50.71,50.71,0,0,1-14.67,11,78.35,78.35,0,0,1-20.33,6.4q-5.31,1-16.71,1ZM78,223.57v92.1q0,7.31.7,9a5,5,0,0,0,2.35,2.52,14.22,14.22,0,0,0,6.79,1.31q14.54,0,22.2-9.92,10.45-13.41,10.45-41.61,0-22.72-7.14-36.3Q107.71,230,98.83,226.19,92.56,223.49,78,223.57Z"/><path class="cls-1" d="M215.77,301.31h-41.7l-5,11.49a25.57,25.57,0,0,0-2.44,9.49,7.88,7.88,0,0,0,4,7.31Q173,331,182.25,331.7v3.22H143V331.7a17.56,17.56,0,0,0,10.45-5.27q4.09-4.31,10.1-17.8l42.22-94.19h1.65L250,311.24q6.09,13.75,10,17.32,3,2.7,8.36,3.13v3.22H211.24V331.7h2.35q6.88,0,9.66-1.92a4.65,4.65,0,0,0,1.92-4,10.68,10.68,0,0,0-.52-3.22q-.18-.78-2.61-6.53Zm-3-6.44-17.58-40.65-18.11,40.65Z"/><path class="cls-1" d="M337.49,294.7l32-77.83h48.05v3.22h-3.83a16.52,16.52,0,0,0-8.36,1.83,8.5,8.5,0,0,0-3.48,4.09q-1,2.09-1,10.88v77.83q0,9.06,1,11.32a8.67,8.67,0,0,0,3.92,4,15.89,15.89,0,0,0,7.92,1.7h3.83v3.22H355.94V331.7h3.83a16.53,16.53,0,0,0,8.36-1.83,8.48,8.48,0,0,0,3.48-4.18q1-2.09,1-11V227.23L327.3,334.92h-2.09l-46-106.9v83.14q0,8.71.44,10.71a12.4,12.4,0,0,0,4.92,7.1q3.79,2.74,11.88,2.74v3.22H256.09V331.7h1.22a18.46,18.46,0,0,0,7.31-1.26,11.76,11.76,0,0,0,5.14-3.61,16.63,16.63,0,0,0,2.7-6.36q.17-1,.17-8.88V236.89q0-9-1-11.19a8.76,8.76,0,0,0-3.92-3.92,15.89,15.89,0,0,0-7.92-1.7h-3.74v-3.22h48.23Z"/><path class="cls-1" d="M468.76,216.87,527,290.08V239.33q0-10.62-3-14.36-4.18-5-14-4.88v-3.22h39v3.22q-7.49,1-10.06,2.48a10,10,0,0,0-4,5q-1.44,3.44-1.44,11.8v98.28h-3l-79.83-98.28v75q0,10.19,4.66,13.75A17.06,17.06,0,0,0,466,331.7h2.79v3.22H426.89V331.7q9.75-.09,13.58-4t3.83-13.32V231.06l-2.52-3.13q-3.74-4.7-6.62-6.18a19.94,19.94,0,0,0-8.27-1.65v-3.22Z"/><path class="cls-1" d="M564.71,308.1a14.49,14.49,0,1,1-10.23,4.27A14,14,0,0,1,564.71,308.1Z"/><path class="cls-2" d="M56.54,183.91,69.6,200.26a21,21,0,0,0,4.77,4.68,5.84,5.84,0,0,0,3.07.88v1H58.1v-1a5.18,5.18,0,0,0,2.37-.58,1.24,1.24,0,0,0,.53-1q0-1.15-2.52-4.33L50,189.2l-1.37,1.15v10.13a11.5,11.5,0,0,0,.33,3.61,2.76,2.76,0,0,0,1.26,1.22,6.56,6.56,0,0,0,3,.51v1H34.44v-1h1.23a5.14,5.14,0,0,0,2.6-.58,2.49,2.49,0,0,0,1.1-1.31,11.28,11.28,0,0,0,.3-3.45V176.05a12.21,12.21,0,0,0-.3-3.56,2.74,2.74,0,0,0-1.22-1.25,4.92,4.92,0,0,0-2.48-.53H34.44v-1H52.93v1a6,6,0,0,0-2.88.55,2.63,2.63,0,0,0-1.12,1.29,10.8,10.8,0,0,0-.33,3.5v11.56l13.77-11.15q2.88-2.33,2.88-3.72a1.83,1.83,0,0,0-1.18-1.64,9.43,9.43,0,0,0-3-.38v-1H75.57v1a8.16,8.16,0,0,0-3.05.7,43.57,43.57,0,0,0-5.11,3.79Z"/><path class="cls-2" d="M91,171.84V187h.74q3.53,0,5.12-2.22a13.65,13.65,0,0,0,2-6.54h1v19.44h-1a14.57,14.57,0,0,0-1.38-5.2A6,6,0,0,0,95,189.7,9.32,9.32,0,0,0,91,189v10.46a15.06,15.06,0,0,0,.26,3.75,2.25,2.25,0,0,0,1,1.12,4.56,4.56,0,0,0,2.3.44h2.22A12,12,0,0,0,109.56,195h1l-1.67,11.8H76.81v-1H78a5.14,5.14,0,0,0,2.6-.58,2.49,2.49,0,0,0,1.1-1.31,11.28,11.28,0,0,0,.3-3.45V176.05A19.54,19.54,0,0,0,81.9,173a2.62,2.62,0,0,0-1-1.48,4.71,4.71,0,0,0-2.85-.77H76.81v-1h31.08v11h-1a13.39,13.39,0,0,0-2.23-5.78,8.3,8.3,0,0,0-4.07-2.57,22,22,0,0,0-5.75-.49Z"/><path class="cls-2" d="M125.94,169.7l18.32,23v-16q0-3.34-1-4.52-1.31-1.59-4.41-1.53v-1h12.27v1a9.36,9.36,0,0,0-3.16.78,3.14,3.14,0,0,0-1.26,1.56,10.66,10.66,0,0,0-.45,3.71v30.92h-.93l-25.11-30.92v23.6q0,3.2,1.46,4.33a5.37,5.37,0,0,0,3.35,1.12h.88v1H112.76v-1q3.07,0,4.27-1.26t1.21-4.19V174.16l-.79-1a7.22,7.22,0,0,0-2.08-1.94,6.28,6.28,0,0,0-2.6-.52v-1Z"/><path class="cls-2" d="M152.09,206.83v-1h1.23a4.94,4.94,0,0,0,2.48-.51,3.1,3.1,0,0,0,1.27-1.38,13.07,13.07,0,0,0,.25-3.45V176.05a12.21,12.21,0,0,0-.3-3.56,2.74,2.74,0,0,0-1.22-1.25,4.92,4.92,0,0,0-2.48-.53h-1.23v-1h16.62a26.61,26.61,0,0,1,10.71,1.81,15.83,15.83,0,0,1,7.52,6.71,21.38,21.38,0,0,1,1.3,17.38A16.58,16.58,0,0,1,185,201a16,16,0,0,1-4.61,3.45,24.65,24.65,0,0,1-6.39,2,30,30,0,0,1-5.26.33Zm14.16-35v29a10.18,10.18,0,0,0,.22,2.82,1.56,1.56,0,0,0,.74.79,4.48,4.48,0,0,0,2.14.41,8.29,8.29,0,0,0,7-3.12q3.29-4.22,3.29-13.09,0-7.15-2.25-11.42a9.57,9.57,0,0,0-4.57-4.55A17.76,17.76,0,0,0,166.24,171.81Z"/><path class="cls-2" d="M205.62,189.91v10.41a11.5,11.5,0,0,0,.37,3.79,2.71,2.71,0,0,0,1.3,1.25,8.76,8.76,0,0,0,3.48.47v1h-19v-1a8.53,8.53,0,0,0,3.49-.48,2.79,2.79,0,0,0,1.29-1.25,11.34,11.34,0,0,0,.37-3.78v-24.1a11.48,11.48,0,0,0-.37-3.79,2.7,2.7,0,0,0-1.3-1.25,8.77,8.77,0,0,0-3.48-.47v-1H209a37.68,37.68,0,0,1,9.86.93,9.94,9.94,0,0,1,5.09,3.44,9.22,9.22,0,0,1,2,5.87,8.77,8.77,0,0,1-3,6.79,12.22,12.22,0,0,1-5.29,2.55l8.93,12.57a19,19,0,0,0,2.49,3,4.64,4.64,0,0,0,2.6.93v1H220l-12-16.92Zm0-18.21V188h1.56a17.46,17.46,0,0,0,5.7-.7,5.68,5.68,0,0,0,3-2.52,9.23,9.23,0,0,0,1.08-4.75q0-4.24-2-6.27t-6.39-2Z"/><path class="cls-2" d="M250.64,205.82v1H231.23v-1h1.23a5.14,5.14,0,0,0,2.6-.58,2.49,2.49,0,0,0,1.1-1.31,11.28,11.28,0,0,0,.3-3.45V176.05a12.21,12.21,0,0,0-.3-3.56,2.74,2.74,0,0,0-1.22-1.25,4.92,4.92,0,0,0-2.48-.53h-1.23v-1h19.42v1h-1.23a5.13,5.13,0,0,0-2.6.58,2.62,2.62,0,0,0-1.12,1.31,11.28,11.28,0,0,0-.3,3.45v24.43a11.7,11.7,0,0,0,.31,3.56,2.82,2.82,0,0,0,1.23,1.25,4.92,4.92,0,0,0,2.48.53Z"/><path class="cls-2" d="M288.24,168.85v12.87h-1.07a13.72,13.72,0,0,0-4.49-7.72,11.46,11.46,0,0,0-7.45-2.68,11,11,0,0,0-6.38,2,11.66,11.66,0,0,0-4.24,5.23,23.68,23.68,0,0,0-1.73,9.2,30.77,30.77,0,0,0,1.26,9.08,12.07,12.07,0,0,0,3.94,6.19,11,11,0,0,0,7,2.09,13.58,13.58,0,0,0,6.42-1.53,22.2,22.2,0,0,0,6.15-5.28v3.2a20.28,20.28,0,0,1-6.5,4.72,19.74,19.74,0,0,1-7.9,1.47,22.68,22.68,0,0,1-10.56-2.38,16.83,16.83,0,0,1-7.12-6.85A19.11,19.11,0,0,1,253,189a20.27,20.27,0,0,1,10.28-17.47,20.33,20.33,0,0,1,10-2.63,22.78,22.78,0,0,1,8.27,1.7,12.71,12.71,0,0,0,3.2,1,2.08,2.08,0,0,0,1.52-.64,3.5,3.5,0,0,0,.83-2Z"/><path class="cls-2" d="M313.55,183.91l13.06,16.35a21,21,0,0,0,4.76,4.68,5.84,5.84,0,0,0,3.07.88v1H315.11v-1a5.18,5.18,0,0,0,2.37-.58,1.24,1.24,0,0,0,.53-1q0-1.15-2.52-4.33L307,189.2l-1.37,1.15v10.13a11.53,11.53,0,0,0,.33,3.61,2.77,2.77,0,0,0,1.26,1.22,6.56,6.56,0,0,0,3,.51v1H291.45v-1h1.23a5.14,5.14,0,0,0,2.6-.58,2.49,2.49,0,0,0,1.1-1.31,11.28,11.28,0,0,0,.3-3.45V176.05a12.21,12.21,0,0,0-.3-3.56,2.74,2.74,0,0,0-1.22-1.25,4.92,4.92,0,0,0-2.48-.53h-1.23v-1h18.48v1a6,6,0,0,0-2.87.55,2.63,2.63,0,0,0-1.12,1.29,10.82,10.82,0,0,0-.33,3.5v11.56l13.77-11.15q2.88-2.33,2.88-3.72a1.83,1.83,0,0,0-1.18-1.64,9.42,9.42,0,0,0-3-.38v-1h14.49v1a8.16,8.16,0,0,0-3.05.7,43.47,43.47,0,0,0-5.11,3.79Z"/><path class="cls-2" d="M381,193.8l-1.4,13h-33v-1h1.23a5.14,5.14,0,0,0,2.6-.58,2.49,2.49,0,0,0,1.1-1.31,11.31,11.31,0,0,0,.3-3.45V176.05a12.24,12.24,0,0,0-.3-3.56,2.74,2.74,0,0,0-1.22-1.25,4.92,4.92,0,0,0-2.48-.53h-1.23v-1h19.8v1h-1.62a5.13,5.13,0,0,0-2.6.58,2.62,2.62,0,0,0-1.12,1.31,11.27,11.27,0,0,0-.3,3.45v23.66a12,12,0,0,0,.33,3.63,2.18,2.18,0,0,0,1.29,1.16,13,13,0,0,0,3.31.25h3.09a10.48,10.48,0,0,0,4.93-1,9.19,9.19,0,0,0,3.41-3.29,26.63,26.63,0,0,0,2.72-6.63Z"/><path class="cls-2" d="M405.2,196.26H392.08l-1.56,3.61a8,8,0,0,0-.77,3,2.48,2.48,0,0,0,1.26,2.3,10.57,10.57,0,0,0,3.64.66v1H382.31v-1a5.52,5.52,0,0,0,3.29-1.66,22,22,0,0,0,3.18-5.6l13.28-29.63h.52L416,199.38q1.92,4.33,3.15,5.45a4.3,4.3,0,0,0,2.63,1v1h-18v-1h.74a5.62,5.62,0,0,0,3-.6,1.46,1.46,0,0,0,.6-1.26,3.36,3.36,0,0,0-.16-1q-.06-.25-.82-2.05Zm-.93-2-5.53-12.79L393,194.24Z"/><path class="cls-2" d="M448,194.18l10.08-24.48h15.12v1H472a5.2,5.2,0,0,0-2.63.58,2.67,2.67,0,0,0-1.1,1.29,11.12,11.12,0,0,0-.3,3.42v24.48a12.19,12.19,0,0,0,.3,3.56,2.73,2.73,0,0,0,1.23,1.25,5,5,0,0,0,2.49.53h1.21v1H453.78v-1H455a5.2,5.2,0,0,0,2.63-.58,2.67,2.67,0,0,0,1.1-1.31,11.31,11.31,0,0,0,.3-3.45V173l-14.24,33.87h-.66l-14.46-33.63v26.15a23,23,0,0,0,.14,3.37,3.9,3.9,0,0,0,1.55,2.23,6.43,6.43,0,0,0,3.74.86v1H422.37v-1h.38a5.81,5.81,0,0,0,2.3-.4,3.7,3.7,0,0,0,1.62-1.14,5.23,5.23,0,0,0,.85-2q.06-.3.05-2.79V176a11.93,11.93,0,0,0-.3-3.52,2.76,2.76,0,0,0-1.23-1.23,5,5,0,0,0-2.49-.53h-1.18v-1h15.17Z"/><path class="cls-2" d="M496.39,196.26H483.27l-1.56,3.61a8,8,0,0,0-.77,3,2.48,2.48,0,0,0,1.26,2.3,10.57,10.57,0,0,0,3.64.66v1H473.5v-1a5.52,5.52,0,0,0,3.29-1.66,22,22,0,0,0,3.18-5.6l13.28-29.63h.52l13.39,30.45q1.92,4.33,3.15,5.45a4.3,4.3,0,0,0,2.63,1v1H495v-1h.74a5.62,5.62,0,0,0,3-.6,1.46,1.46,0,0,0,.6-1.26,3.36,3.36,0,0,0-.16-1q-.06-.25-.82-2.05Zm-.93-2-5.53-12.79-5.7,12.79Z"/><path class="cls-2" d="M527.33,189.91v10.41a11.46,11.46,0,0,0,.37,3.79,2.7,2.7,0,0,0,1.3,1.25,8.76,8.76,0,0,0,3.48.47v1h-19v-1a8.53,8.53,0,0,0,3.49-.48,2.8,2.8,0,0,0,1.29-1.25,11.36,11.36,0,0,0,.37-3.78v-24.1a11.5,11.5,0,0,0-.37-3.79,2.71,2.71,0,0,0-1.3-1.25,8.77,8.77,0,0,0-3.48-.47v-1h17.25a37.68,37.68,0,0,1,9.86.93,9.93,9.93,0,0,1,5.09,3.44,9.22,9.22,0,0,1,2,5.87,8.77,8.77,0,0,1-3,6.79,12.22,12.22,0,0,1-5.29,2.55l8.93,12.57a19,19,0,0,0,2.49,3,4.64,4.64,0,0,0,2.6.93v1H541.74l-12-16.92Zm0-18.21V188h1.56a17.46,17.46,0,0,0,5.7-.7,5.67,5.67,0,0,0,3-2.52,9.22,9.22,0,0,0,1.08-4.75q0-4.24-2-6.27t-6.39-2Z"/><path class="cls-2" d="M225.52,379.67h-3.11v-20.8h3.11v1.47a5.76,5.76,0,0,1,4.18-1.84,5.82,5.82,0,0,1,4.58,2,7.39,7.39,0,0,1,1.83,5.13,7.28,7.28,0,0,1-1.81,5,5.9,5.9,0,0,1-8.77.11Zm7.4-14a4.65,4.65,0,0,0-1.05-3.15,3.4,3.4,0,0,0-2.68-1.23,3.55,3.55,0,0,0-2.78,1.19,4.51,4.51,0,0,0-1.06,3.13,4.6,4.6,0,0,0,1.06,3.13,3.5,3.5,0,0,0,2.77,1.2,3.37,3.37,0,0,0,2.67-1.22A4.42,4.42,0,0,0,232.92,365.69Z"/><path class="cls-2" d="M239.39,358.87h3.11v1.2a5.93,5.93,0,0,1,1.52-1.23,3.49,3.49,0,0,1,1.6-.35,5,5,0,0,1,2.57.8l-1.42,2.85a3,3,0,0,0-1.73-.64q-2.55,0-2.54,3.84v7h-3.11Z"/><path class="cls-2" d="M262.06,366.34h-9.65a4.09,4.09,0,0,0,1.08,2.64,3.29,3.29,0,0,0,2.45,1,3.19,3.19,0,0,0,1.92-.55,7.89,7.89,0,0,0,1.7-2l2.63,1.47a10.47,10.47,0,0,1-1.29,1.78,6.86,6.86,0,0,1-1.45,1.22,5.82,5.82,0,0,1-1.67.7,8.15,8.15,0,0,1-2,.22,6.34,6.34,0,0,1-4.84-1.94,7.26,7.26,0,0,1-1.83-5.17,7.47,7.47,0,0,1,1.77-5.17,6.75,6.75,0,0,1,9.43-.05,7.45,7.45,0,0,1,1.71,5.21Zm-3.19-2.54a3,3,0,0,0-3.14-2.49,3.23,3.23,0,0,0-1.06.17,3,3,0,0,0-.91.5,3.16,3.16,0,0,0-.7.78,3.63,3.63,0,0,0-.44,1Z"/><path class="cls-2" d="M263.5,364.14h6.17v2.71H263.5Z"/><path class="cls-2" d="M271,365.51a6.69,6.69,0,0,1,2.09-5,7.37,7.37,0,0,1,10.21,0,7.21,7.21,0,0,1,0,10.14,7.14,7.14,0,0,1-5.16,2,6.85,6.85,0,0,1-5.08-2.08A7,7,0,0,1,271,365.51Zm3.18.06a4.54,4.54,0,0,0,1.08,3.19,4.19,4.19,0,0,0,5.84,0,5.06,5.06,0,0,0,0-6.28,4.14,4.14,0,0,0-5.81,0A4.33,4.33,0,0,0,274.17,365.57Z"/><path class="cls-2" d="M288.65,358.87h3.11v1.2a5.93,5.93,0,0,1,1.52-1.23,3.49,3.49,0,0,1,1.6-.35,5,5,0,0,1,2.57.8L296,362.15a3,3,0,0,0-1.73-.64q-2.55,0-2.54,3.84v7h-3.11Z"/><path class="cls-2" d="M309,349h3.13v23.36H309v-1.41a5.81,5.81,0,0,1-4.16,1.8,5.93,5.93,0,0,1-4.59-2,7.51,7.51,0,0,1-1.81-5.14,7.26,7.26,0,0,1,1.81-5,5.82,5.82,0,0,1,8.75-.1Zm-7.38,16.58a4.69,4.69,0,0,0,1,3.15,3.4,3.4,0,0,0,2.68,1.23,3.57,3.57,0,0,0,2.79-1.19,5.12,5.12,0,0,0,0-6.25,3.52,3.52,0,0,0-2.77-1.2,3.44,3.44,0,0,0-2.68,1.22A4.48,4.48,0,0,0,301.6,365.57Z"/><path class="cls-2" d="M328.3,366.34h-9.65a4.09,4.09,0,0,0,1.08,2.64,3.28,3.28,0,0,0,2.45,1,3.18,3.18,0,0,0,1.92-.55,7.9,7.9,0,0,0,1.7-2l2.63,1.47a10.41,10.41,0,0,1-1.29,1.78,6.81,6.81,0,0,1-1.45,1.22,5.79,5.79,0,0,1-1.67.7,8.16,8.16,0,0,1-2,.22,6.34,6.34,0,0,1-4.84-1.94,7.26,7.26,0,0,1-1.83-5.17,7.47,7.47,0,0,1,1.77-5.17,6.75,6.75,0,0,1,9.43-.05,7.45,7.45,0,0,1,1.71,5.21Zm-3.2-2.54a3,3,0,0,0-3.14-2.49,3.22,3.22,0,0,0-1.06.17,3,3,0,0,0-.91.5,3.18,3.18,0,0,0-.7.78,3.65,3.65,0,0,0-.44,1Z"/><path class="cls-2" d="M331.7,358.87h3.11v1.2a6,6,0,0,1,1.52-1.23,3.49,3.49,0,0,1,1.61-.35,5,5,0,0,1,2.57.8l-1.43,2.85a3,3,0,0,0-1.73-.64q-2.54,0-2.54,3.84v7H331.7Z"/><path class="cls-2" d="M361.52,359.45v4.13a7.58,7.58,0,0,0-1.91-1.78,3.71,3.71,0,0,0-1.95-.5,3.84,3.84,0,0,0-2.92,1.23,4.31,4.31,0,0,0-1.16,3.08,4.41,4.41,0,0,0,1.12,3.11,3.77,3.77,0,0,0,2.89,1.22,4,4,0,0,0,2-.48,7.8,7.8,0,0,0,1.95-1.83v4.11a8.17,8.17,0,0,1-3.79,1,7.25,7.25,0,0,1-5.23-2,6.74,6.74,0,0,1-2.1-5,6.83,6.83,0,0,1,2.13-5.09,7.2,7.2,0,0,1,5.23-2.07A7.8,7.8,0,0,1,361.52,359.45Z"/><path class="cls-2" d="M374.46,349h3.13v23.36h-3.12v-1.41a5.81,5.81,0,0,1-4.16,1.8,5.93,5.93,0,0,1-4.59-2,7.5,7.5,0,0,1-1.81-5.14,7.26,7.26,0,0,1,1.81-5,5.82,5.82,0,0,1,8.75-.1Zm-7.38,16.58a4.69,4.69,0,0,0,1,3.15,3.39,3.39,0,0,0,2.68,1.23,3.58,3.58,0,0,0,2.79-1.19,5.12,5.12,0,0,0,0-6.25,3.53,3.53,0,0,0-2.77-1.2,3.44,3.44,0,0,0-2.68,1.22A4.48,4.48,0,0,0,367.08,365.57Z"/><path class="cls-2" d="M286.49,428.42V401h-6.34v-7h15.08v34.43Z"/><path class="cls-2" d="M325.84,402.63c0,3.73-2.75,7.61-6.48,11.44l-7,7.42h14.49v6.93H301.13v-5.65l12.28-13c1.92-2,3.29-4.32,3.29-5.89,0-2-1.42-3.14-3.88-3.14-2.8,0-6.24,1.67-9.38,4.37l-3.29-6.29c4.32-3.24,9-5.16,14-5.16C320.92,393.64,325.84,397.18,325.84,402.63Z"/><path class="cls-2" d="M333.37,426.25a3.37,3.37,0,0,1-.63,1.88l-2.08,3h-2.33l1.28-3a2.12,2.12,0,0,1-.94-1.85,2.27,2.27,0,0,1,2.36-2.33A2.23,2.23,0,0,1,333.37,426.25Z"/><path class="cls-2" d="M335.1,427l1.94-3.53a7.21,7.21,0,0,0,4.18,1.28c3.19,0,4.73-2,4.67-5.3a5.48,5.48,0,0,1-4.75,2.13,6,6,0,0,1-6.43-6.43c0-4.21,3-6.89,7.46-6.89,5.35,0,8.6,3.79,8.6,9.91,0,6.35-3.62,10.48-9.23,10.48A13.24,13.24,0,0,1,335.1,427Zm10.25-11.9a3,3,0,0,0-6,.08,2.55,2.55,0,0,0,2.88,2.71A2.74,2.74,0,0,0,345.35,415.06Z"/><path class="cls-2" d="M270.65,409.79a11.93,11.93,0,0,1-8.23,3.64,10.2,10.2,0,0,1-10-7h-2.9v-2.14H252c0-.34-.06-.71-.06-1.08s0-.68.06-1h-2.48v-2.14h2.9c1.34-4.13,5.27-6.95,10.19-6.95a11.5,11.5,0,0,1,8,3.36l-2.9,3.47a6.87,6.87,0,0,0-5-2.59,5.35,5.35,0,0,0-4.73,2.71h6.43v2.14h-7.2c0,.31-.06.63-.06.94a7.43,7.43,0,0,0,.09,1.14h7.17v2.14H258a5.37,5.37,0,0,0,4.64,2.59,7.53,7.53,0,0,0,5-2.33Z"/></g></svg>