<svg id="Layer_1" data-name="Layer 1" xmlns="http://www.w3.org/2000/svg" xmlns:xlink="http://www.w3.org/1999/xlink" viewBox="0 0 600 600"><defs><style>.cls-1{fill:#4b9f5a;}.cls-2{fill:#ec5d25;}.cls-3{fill:#fff;}</style></defs><title>Info Box Julia</title><polygon class="cls-1" points="249.79 398.48 177.36 398.48 294.05 158.62 366.49 158.62 249.79 398.48"/><polygon class="cls-2" points="199.18 398.48 126.74 398.48 243.44 158.62 315.88 158.62 199.18 398.48"/><path class="cls-3" d="M131.72,197.2a13.17,13.17,0,0,0-.83,1.25L115.45,228q-1.6,3-6.07,4.93t-12.14,1.89a26.11,26.11,0,0,1-5.65-.61,13.08,13.08,0,0,1-5-2.26L88,225.73a6.2,6.2,0,0,0,1.57,3.6,6.4,6.4,0,0,0,3.14,2,5.72,5.72,0,0,0,3.7-.29,6.43,6.43,0,0,0,3.2-3.33L116,196h17.1A3.84,3.84,0,0,0,131.72,197.2Z"/><path class="cls-3" d="M177,221a4.93,4.93,0,0,1-.24,1.57,13.66,13.66,0,0,1-.56,1.41L173,227.35a25.36,25.36,0,0,1-4.29,3.62,24.76,24.76,0,0,1-6.07,2.93,28.6,28.6,0,0,1-8.5,1.31,12.92,12.92,0,0,1-2.05-.19,9.25,9.25,0,0,1-2.24-.67A6,6,0,0,1,148,233a4.6,4.6,0,0,1-1.15-2.18,17.78,17.78,0,0,1-6.26,3.3,24.94,24.94,0,0,1-7.22,1.07,6.82,6.82,0,0,1-3.49-.77,4.82,4.82,0,0,1-1.89-1.89,4.74,4.74,0,0,1-.56-2.34,4.84,4.84,0,0,1,.45-2.08l6.87-13.42a6.54,6.54,0,0,0,.91-2.88,1.24,1.24,0,0,0-.75-1.23,3,3,0,0,0-1.81,0,13,13,0,0,0-2.29.85,13.48,13.48,0,0,0-2.16,1.28,6.46,6.46,0,0,0-1.41,1.3l-.16-1.7a19.28,19.28,0,0,1,4.18-3.33,29.6,29.6,0,0,1,10-3.73,28.35,28.35,0,0,1,4.87-.45,4.73,4.73,0,0,1,2.53.61,3.67,3.67,0,0,1,1.44,1.6,4.52,4.52,0,0,1,.37,2.21,6.66,6.66,0,0,1-.67,2.45l-8.95,17.2q-.59,1.12.16,1.38a3.55,3.55,0,0,0,1.94,0,8.89,8.89,0,0,0,2.4-.93,3.91,3.91,0,0,0,1.62-1.46l8.84-17.31h14.49a4.33,4.33,0,0,0-1.81,1.65l-1.17,2-5.49,10.92a6,6,0,0,0-.72,1.92,2.89,2.89,0,0,0,.08,1.44,1.61,1.61,0,0,0,.72.88,2.24,2.24,0,0,0,1.15.29,8.83,8.83,0,0,0,3.38-.8,23.12,23.12,0,0,0,3.81-2.08,34.76,34.76,0,0,0,3.68-2.82A30.45,30.45,0,0,0,177,221Z"/><path class="cls-3" d="M204.34,221.09q-.05.75-.16,1.46a4.22,4.22,0,0,1-.53,1.46q-1.23,1.39-3.06,3.3a23.36,23.36,0,0,1-4.71,3.67,29.85,29.85,0,0,1-6.92,3,33.73,33.73,0,0,1-9.69,1.23,26.61,26.61,0,0,1-5.09-.45,7.53,7.53,0,0,1-3.54-1.52,17.75,17.75,0,0,0,1.44-1.52,14.72,14.72,0,0,0,1.38-1.89l12.52-24a4.25,4.25,0,0,0,.67-2.37,1.29,1.29,0,0,0-.83-1.09,3.58,3.58,0,0,0-1.78-.11,9.73,9.73,0,0,0-4.13,1.65,4.71,4.71,0,0,0-1.28,1.23l-.16-1.65a16.63,16.63,0,0,1,3.78-3.33,25.37,25.37,0,0,1,4.58-2.34,27,27,0,0,1,4.82-1.38,24.65,24.65,0,0,1,4.5-.45,5.75,5.75,0,0,1,3.73,1,4.17,4.17,0,0,1,1.46,2.29,5.87,5.87,0,0,1,0,2.66,10,10,0,0,1-.69,2.1l-11.13,21.3a5.08,5.08,0,0,0-.61,1.65,3.39,3.39,0,0,0,0,1.41,1.7,1.7,0,0,0,.61,1,1.64,1.64,0,0,0,1.25.24,9.5,9.5,0,0,0,2.1-.29,12.22,12.22,0,0,0,2.93-1.2,26.27,26.27,0,0,0,3.78-2.58A50.7,50.7,0,0,0,204.34,221.09Z"/><path class="cls-3" d="M202.91,235.26q-5,0-6.07-2.4t1.17-6.71l6.71-12.25a7.36,7.36,0,0,0,.75-1.94,3.62,3.62,0,0,0,.05-1.36h15.34a2.9,2.9,0,0,0-.93.75,4.76,4.76,0,0,0-.61.91l-6.76,13.1q-1.23,2.34-.69,3.28a2,2,0,0,0,1.92.93,8.56,8.56,0,0,0,3.7-.93,22.23,22.23,0,0,0,3.78-2.32,39.55,39.55,0,0,0,3.46-2.93q1.62-1.54,2.74-2.77a4,4,0,0,1-.16,1.68,2.67,2.67,0,0,1-.69,1.25,45.67,45.67,0,0,1-4.53,4.71,28.08,28.08,0,0,1-5.25,3.73,25.78,25.78,0,0,1-6.28,2.42A31.78,31.78,0,0,1,202.91,235.26Zm15.66-42.5a6.06,6.06,0,0,1,2.69.56,4.55,4.55,0,0,1,2.64,3.67,6.23,6.23,0,0,1-.27,2.64,10.31,10.31,0,0,1-1.23,2.61,9.61,9.61,0,0,1-1.92,2.16,9.23,9.23,0,0,1-2.53,1.49,8.09,8.09,0,0,1-3,.56,5.76,5.76,0,0,1-2.61-.56,4.59,4.59,0,0,1-2.61-3.67,6.22,6.22,0,0,1,.27-2.64,7.72,7.72,0,0,1,1.15-2.66,9.73,9.73,0,0,1,4.55-3.62A8,8,0,0,1,218.56,192.76Z"/><path class="cls-3" d="M268.74,220.61a5.14,5.14,0,0,1-.21,1.46,13.48,13.48,0,0,1-.53,1.46,46.54,46.54,0,0,1-4.18,4.18,33.18,33.18,0,0,1-4.77,3.49,32,32,0,0,1-6.92,2.9,29.56,29.56,0,0,1-8.15,1,5.76,5.76,0,0,1-3.54-1.2,4.34,4.34,0,0,1-1.12-1.25,2.57,2.57,0,0,1-.35-1.49,9.89,9.89,0,0,1-2.5,1.89,15.46,15.46,0,0,1-3,1.23,19.12,19.12,0,0,1-3.14.64,25.9,25.9,0,0,1-3,.19,7.22,7.22,0,0,1-2.85-.53,6.54,6.54,0,0,1-2.16-1.46,6.69,6.69,0,0,1-1.41-2.18,8.76,8.76,0,0,1-.61-2.64,14.17,14.17,0,0,1,.75-5.51,16.58,16.58,0,0,1,2.53-4.69,18.81,18.81,0,0,1,3.86-3.73,26,26,0,0,1,4.77-2.74,24.88,24.88,0,0,1,5.19-1.65,23.82,23.82,0,0,1,5.17-.48,8.7,8.7,0,0,1,3,.51,3.11,3.11,0,0,1,1.89,1.52,8.9,8.9,0,0,1,3.44-1.6,16.72,16.72,0,0,1,4.13-.45,19.41,19.41,0,0,1,4.1.48,14,14,0,0,1,3.3,1.15,7.18,7.18,0,0,0-1.92,1.7A12.07,12.07,0,0,0,259.1,215l-5.49,10.49a5.92,5.92,0,0,0-.59,2,2.49,2.49,0,0,0,.19,1.28,1.31,1.31,0,0,0,.75.67,3.11,3.11,0,0,0,1.09.19,8.91,8.91,0,0,0,3.83-.91,19.93,19.93,0,0,0,3.67-2.26,34.79,34.79,0,0,0,3.33-2.93ZM245.35,215a1.56,1.56,0,0,0,.05-1.62,1.25,1.25,0,0,0-1-.56,4.81,4.81,0,0,0-3,1.36,18.38,18.38,0,0,0-3,3.38,35.28,35.28,0,0,0-2.64,4.37,33.51,33.51,0,0,0-1.89,4.37,12.34,12.34,0,0,0-.75,3.38q-.05,1.36.8,1.36a3.29,3.29,0,0,0,1.38-.32,8.34,8.34,0,0,0,1.33-.77,9,9,0,0,0,1.17-1,6.79,6.79,0,0,0,.85-1Z"/><path class="cls-3" d="M315.69,197.2a13.05,13.05,0,0,0-.83,1.25L299.41,228q-1.6,3-6.07,4.93t-12.14,1.89a26.11,26.11,0,0,1-5.65-.61,13.08,13.08,0,0,1-5-2.26l1.38-6.18a6.2,6.2,0,0,0,1.57,3.6,6.4,6.4,0,0,0,3.14,2,5.72,5.72,0,0,0,3.7-.29,6.43,6.43,0,0,0,3.2-3.33L300,196h17.1A3.85,3.85,0,0,0,315.69,197.2Z"/><path class="cls-3" d="M356.35,220.61a5.14,5.14,0,0,1-.21,1.46,13.48,13.48,0,0,1-.53,1.46,46.55,46.55,0,0,1-4.18,4.18,33.18,33.18,0,0,1-4.77,3.49,32,32,0,0,1-6.92,2.9,29.56,29.56,0,0,1-8.15,1A5.76,5.76,0,0,1,328,234a4.32,4.32,0,0,1-1.12-1.25,2.56,2.56,0,0,1-.35-1.49,9.88,9.88,0,0,1-2.5,1.89,15.47,15.47,0,0,1-3,1.23,19.13,19.13,0,0,1-3.14.64,25.89,25.89,0,0,1-3,.19,7.23,7.23,0,0,1-2.85-.53,6.54,6.54,0,0,1-2.16-1.46,6.67,6.67,0,0,1-1.41-2.18,8.78,8.78,0,0,1-.61-2.64,14.2,14.2,0,0,1,.75-5.51,16.59,16.59,0,0,1,2.53-4.69,18.85,18.85,0,0,1,3.86-3.73,26,26,0,0,1,4.77-2.74A24.86,24.86,0,0,1,325,210a23.81,23.81,0,0,1,5.17-.48,8.7,8.7,0,0,1,3,.51,3.11,3.11,0,0,1,1.89,1.52,8.9,8.9,0,0,1,3.44-1.6,16.72,16.72,0,0,1,4.13-.45,19.4,19.4,0,0,1,4.1.48,14,14,0,0,1,3.3,1.15,7.2,7.2,0,0,0-1.92,1.7,12.07,12.07,0,0,0-1.38,2.13l-5.49,10.49a5.93,5.93,0,0,0-.59,2,2.49,2.49,0,0,0,.19,1.28,1.3,1.3,0,0,0,.75.67,3.12,3.12,0,0,0,1.09.19,8.91,8.91,0,0,0,3.83-.91,19.92,19.92,0,0,0,3.68-2.26,34.9,34.9,0,0,0,3.33-2.93ZM333,215a1.57,1.57,0,0,0,.05-1.62,1.25,1.25,0,0,0-1-.56,4.8,4.8,0,0,0-3,1.36,18.34,18.34,0,0,0-3,3.38,35.34,35.34,0,0,0-2.64,4.37,33.51,33.51,0,0,0-1.89,4.37,12.32,12.32,0,0,0-.75,3.38q-.05,1.36.8,1.36a3.29,3.29,0,0,0,1.38-.32,8.33,8.33,0,0,0,1.33-.77,9,9,0,0,0,1.17-1,6.8,6.8,0,0,0,.85-1Z"/><path class="cls-3" d="M375.47,220.19q1-1.76,1.84-3.44a17,17,0,0,0,1.25-3.38,1.85,1.85,0,0,0,0-1.52,1.3,1.3,0,0,0-1-.67,2.57,2.57,0,0,0-1.49.29,4.48,4.48,0,0,0-1.6,1.36,82.82,82.82,0,0,0-6.34,8.52,37.38,37.38,0,0,0-4.37,9.43q-.48,1.28.24,1.73a3.45,3.45,0,0,0,1.86.45,11.11,11.11,0,0,0,2.37-.27l1.86-.43a16.88,16.88,0,0,0,3.7-1.52,14.13,14.13,0,0,0,2.69-2,16.31,16.31,0,0,0,2.1-2.45q.93-1.33,1.94-2.88l4.85,1.49a46.29,46.29,0,0,1-4,4.13,23.25,23.25,0,0,1-4.58,3.25,24,24,0,0,1-5.51,2.13,27.4,27.4,0,0,1-6.79.77,18.59,18.59,0,0,1-6.87-1,11,11,0,0,1-4.31-2.77,8,8,0,0,1-2-3.91,10.29,10.29,0,0,1,.16-4.53,14.06,14.06,0,0,1,2.08-4.5,16.31,16.31,0,0,1,3.78-3.89,20.24,20.24,0,0,1,3.65-2.24,26.37,26.37,0,0,1,4.13-1.57,32.79,32.79,0,0,1,4.31-.93,29.36,29.36,0,0,1,4.26-.32,38.44,38.44,0,0,1,6.6.51,13,13,0,0,1,4.37,1.41,7,7,0,0,1,2.1,1.86,5.78,5.78,0,0,1,1,2.24,5.63,5.63,0,0,1,0,2.37,6.87,6.87,0,0,1-1,2.26Z"/><path class="cls-3" d="M425.27,233q-3.41,2.21-9.11,2.21a11.37,11.37,0,0,1-4.77-1,10.38,10.38,0,0,1-3.57-2.64,11,11,0,0,1-2.18-3.92,13.7,13.7,0,0,1-.61-4.79l-5.75,11.19H385a6.62,6.62,0,0,0,1.44-1.46q.64-.88,1.17-1.78l13.37-25.51a4.27,4.27,0,0,0,.69-2.32,1.31,1.31,0,0,0-.75-1.12,3,3,0,0,0-1.68-.13,9.57,9.57,0,0,0-2.1.59,11,11,0,0,0-2,1.06,5.29,5.29,0,0,0-1.44,1.33l-.27-1.76a24.87,24.87,0,0,1,3.92-3.2,26.29,26.29,0,0,1,4.34-2.32,25.36,25.36,0,0,1,4.5-1.41,21,21,0,0,1,4.34-.48,6.3,6.3,0,0,1,3.92,1,4,4,0,0,1,1.49,2.26,5.53,5.53,0,0,1-.05,2.64,15.32,15.32,0,0,1-.67,2.08l-9.21,17.63,15.71-10.55h6.82l-13.9,7.83h7.94a10.27,10.27,0,0,0-1.86,4.1,8.1,8.1,0,0,0,.05,3.6,5.2,5.2,0,0,0,1.46,2.53,3.4,3.4,0,0,0,2.37,1,4.28,4.28,0,0,0,2.56-1,8.21,8.21,0,0,0,2.34-3.41l1.06,1.76A14.32,14.32,0,0,1,425.27,233Z"/><path class="cls-3" d="M458,221.09q-.05.75-.16,1.46a4.22,4.22,0,0,1-.53,1.46q-1.23,1.39-3.06,3.3A23.39,23.39,0,0,1,449.5,231a29.83,29.83,0,0,1-6.92,3,33.73,33.73,0,0,1-9.69,1.23,26.62,26.62,0,0,1-5.09-.45,7.52,7.52,0,0,1-3.54-1.52,17.91,17.91,0,0,0,1.44-1.52,14.76,14.76,0,0,0,1.38-1.89l12.52-24a4.25,4.25,0,0,0,.67-2.37,1.29,1.29,0,0,0-.83-1.09,3.58,3.58,0,0,0-1.78-.11,9.73,9.73,0,0,0-4.13,1.65,4.71,4.71,0,0,0-1.28,1.23l-.16-1.65a16.62,16.62,0,0,1,3.78-3.33,25.36,25.36,0,0,1,4.58-2.34,27,27,0,0,1,4.82-1.38,24.66,24.66,0,0,1,4.5-.45,5.75,5.75,0,0,1,3.73,1,4.16,4.16,0,0,1,1.46,2.29,5.87,5.87,0,0,1,0,2.66,10,10,0,0,1-.69,2.1l-11.13,21.3a5.08,5.08,0,0,0-.61,1.65,3.39,3.39,0,0,0,0,1.41,1.7,1.7,0,0,0,.61,1,1.63,1.63,0,0,0,1.25.24,9.51,9.51,0,0,0,2.1-.29,12.24,12.24,0,0,0,2.93-1.2,26.27,26.27,0,0,0,3.78-2.58A50.88,50.88,0,0,0,458,221.09Z"/><path class="cls-3" d="M456.54,235.26q-5,0-6.07-2.4t1.17-6.71l6.71-12.25a7.35,7.35,0,0,0,.75-1.94,3.63,3.63,0,0,0,.05-1.36h15.34a2.88,2.88,0,0,0-.93.75,4.77,4.77,0,0,0-.61.91l-6.76,13.1q-1.23,2.34-.69,3.28a2,2,0,0,0,1.92.93,8.57,8.57,0,0,0,3.7-.93,22.21,22.21,0,0,0,3.78-2.32,39.55,39.55,0,0,0,3.46-2.93q1.62-1.54,2.74-2.77a4,4,0,0,1-.16,1.68,2.66,2.66,0,0,1-.69,1.25,45.47,45.47,0,0,1-4.53,4.71,28.06,28.06,0,0,1-5.25,3.73,25.78,25.78,0,0,1-6.28,2.42A31.79,31.79,0,0,1,456.54,235.26Zm15.66-42.5a6.06,6.06,0,0,1,2.69.56,4.55,4.55,0,0,1,2.64,3.67,6.23,6.23,0,0,1-.27,2.64,10.3,10.3,0,0,1-1.22,2.61,9.64,9.64,0,0,1-1.92,2.16,9.22,9.22,0,0,1-2.53,1.49,8.09,8.09,0,0,1-3,.56,5.76,5.76,0,0,1-2.61-.56,4.75,4.75,0,0,1-1.78-1.49,4.7,4.7,0,0,1-.83-2.18,6.21,6.21,0,0,1,.27-2.64,7.72,7.72,0,0,1,1.14-2.66,9.74,9.74,0,0,1,4.55-3.62A8,8,0,0,1,472.19,192.76Z"/><path class="cls-3" d="M504.52,231.64a8.35,8.35,0,0,0-.85,2.45q-.11.85.48,1.12a3,3,0,0,0,1.52.19,8.71,8.71,0,0,0,2.13-.51,15.16,15.16,0,0,0,4.29-2.37,4.82,4.82,0,0,0,1.28-1.41l.05,2a16.78,16.78,0,0,1-4.1,3.3,33.56,33.56,0,0,1-10.57,4,26.4,26.4,0,0,1-4.82.51,7.87,7.87,0,0,1-3.2-.53A3.7,3.7,0,0,1,489,239a3.05,3.05,0,0,1-.4-2,6.37,6.37,0,0,1,.77-2.29l.32-.59,9.53-18.27q.59-1.12-.19-1.36a4,4,0,0,0-2,.05,9.81,9.81,0,0,0-2.5,1,3.55,3.55,0,0,0-1.57,1.38l-9,17.2h-14.7a5,5,0,0,0,1.86-1.73q.75-1.14,1.17-1.94l8-15.39a4.59,4.59,0,0,0,.61-2,2.21,2.21,0,0,0-.72-1.86,17.67,17.67,0,0,1,2.77-.88,26.45,26.45,0,0,1,3.38-.59,21.23,21.23,0,0,1,3.33-.11,8.65,8.65,0,0,1,2.69.51,2.35,2.35,0,0,1,1.44,1.31,2.67,2.67,0,0,1-.45,2.26,20.47,20.47,0,0,1,5.88-3.06,22.39,22.39,0,0,1,7-1,7.9,7.9,0,0,1,3.6.72A5.87,5.87,0,0,1,512,212a4.42,4.42,0,0,1,.85,2.18,3.63,3.63,0,0,1-.32,2Z"/><path class="cls-3" d="M75.45,284.45q1.9-3.3,3.45-6.45a31.93,31.93,0,0,0,2.35-6.35,3.48,3.48,0,0,0,0-2.85,2.44,2.44,0,0,0-1.8-1.25,4.82,4.82,0,0,0-2.8.55,8.41,8.41,0,0,0-3,2.55,155.22,155.22,0,0,0-11.9,16,70.15,70.15,0,0,0-8.2,17.7q-.9,2.4.45,3.25a6.47,6.47,0,0,0,3.5.85,20.9,20.9,0,0,0,4.45-.5q2.3-.5,3.5-.8a31.67,31.67,0,0,0,7-2.85,26.46,26.46,0,0,0,5-3.75,30.63,30.63,0,0,0,4-4.6q1.75-2.5,3.65-5.4l9.1,2.8a87.06,87.06,0,0,1-7.5,7.75,43.63,43.63,0,0,1-8.6,6.1,45.13,45.13,0,0,1-10.35,4A51.43,51.43,0,0,1,55,312.65a34.9,34.9,0,0,1-12.9-1.9,20.73,20.73,0,0,1-8.1-5.2,15,15,0,0,1-3.7-7.35,19.32,19.32,0,0,1,.3-8.5,26.44,26.44,0,0,1,3.9-8.45,30.66,30.66,0,0,1,7.1-7.3,38,38,0,0,1,6.85-4.2,49.47,49.47,0,0,1,7.75-3,61.61,61.61,0,0,1,8.1-1.75,55.24,55.24,0,0,1,8-.6,72.23,72.23,0,0,1,12.4,1,24.36,24.36,0,0,1,8.2,2.65,13.16,13.16,0,0,1,4,3.5,10.85,10.85,0,0,1,1.9,4.2,10.56,10.56,0,0,1,0,4.45,12.91,12.91,0,0,1-1.8,4.25Z"/><path class="cls-3" d="M165.45,263.15l-13.3,25.3a16.29,16.29,0,0,0-.3-3.2,5.84,5.84,0,0,0-1.2-2.6,6.16,6.16,0,0,0-2.25-2,7.84,7.84,0,0,0-2.85-.85,10.1,10.1,0,0,0-3,.15,8.74,8.74,0,0,0-2.7,1,21.64,21.64,0,0,0-2.2,1.85,9.93,9.93,0,0,0-1.9,2.55l-13,25.2H94.55a9.28,9.28,0,0,0,3.35-3.2q1.35-2.1,2.45-4l14.4-28.2a14.68,14.68,0,0,0,1.6-4.55,2.89,2.89,0,0,0-1.9-3.15,26.06,26.06,0,0,1,3.5-1.3q2-.6,4.25-1.05t4.6-.7a44.2,44.2,0,0,1,4.65-.25,22.72,22.72,0,0,1,4.65.45,9.37,9.37,0,0,1,3.55,1.45,4.69,4.69,0,0,1,1.85,2.5,5.62,5.62,0,0,1-.45,3.7,20.19,20.19,0,0,1,6.35-5.2,35.26,35.26,0,0,1,7.25-2.85,32.46,32.46,0,0,1,6.6-1.1A22.8,22.8,0,0,1,165.45,263.15Z"/><path class="cls-3" d="M252.45,285.95a9.28,9.28,0,0,1-.45,3,25.76,25.76,0,0,1-1,2.65l-5.9,6.35a47.7,47.7,0,0,1-8,6.8,46.5,46.5,0,0,1-11.4,5.5,53.69,53.69,0,0,1-15.95,2.45,24.2,24.2,0,0,1-3.85-.35,17.35,17.35,0,0,1-4.2-1.25,11.25,11.25,0,0,1-3.6-2.5,8.64,8.64,0,0,1-2.15-4.1,33.38,33.38,0,0,1-11.75,6.2,46.84,46.84,0,0,1-13.55,2A12.81,12.81,0,0,1,164,311.2a9,9,0,0,1-3.55-3.55,8.9,8.9,0,0,1-1-4.4,9.08,9.08,0,0,1,.85-3.9l12.9-25.2q1.8-3.6,1.7-5.4a2.33,2.33,0,0,0-1.4-2.3,5.64,5.64,0,0,0-3.4.05,24.35,24.35,0,0,0-4.3,1.6,25.37,25.37,0,0,0-4,2.4,12.15,12.15,0,0,0-2.65,2.45l-.3-3.2a36.17,36.17,0,0,1,7.85-6.25,55.51,55.51,0,0,1,18.8-7,53.17,53.17,0,0,1,9.15-.85,8.89,8.89,0,0,1,4.75,1.15,6.88,6.88,0,0,1,2.7,3,8.49,8.49,0,0,1,.7,4.15,12.52,12.52,0,0,1-1.25,4.6l-16.8,32.3q-1.1,2.1.3,2.6a6.68,6.68,0,0,0,3.65,0,16.72,16.72,0,0,0,4.5-1.75,7.36,7.36,0,0,0,3.05-2.75l16.6-32.5H240a8.14,8.14,0,0,0-3.4,3.1l-2.2,3.8-10.3,20.5a11.23,11.23,0,0,0-1.35,3.6,5.45,5.45,0,0,0,.15,2.7,3,3,0,0,0,1.35,1.65,4.2,4.2,0,0,0,2.15.55,16.59,16.59,0,0,0,6.35-1.5,43.37,43.37,0,0,0,7.15-3.9,65.31,65.31,0,0,0,6.9-5.3A57.36,57.36,0,0,0,252.45,285.95Z"/><path class="cls-3" d="M296.45,274.45a16.14,16.14,0,0,0-5.65-3.6,18.82,18.82,0,0,0-6.85-1.3,17.19,17.19,0,0,0-4.45.55,8,8,0,0,0-3.2,1.55,2.61,2.61,0,0,0-1,2.35q.15,1.35,2.25,2.95,3,2.2,6.45,5a38.72,38.72,0,0,1,6,5.9,16.31,16.31,0,0,1,3.35,6.7,10,10,0,0,1-1.4,7.35,20.48,20.48,0,0,1-5.55,5,34.68,34.68,0,0,1-7.85,3.75,53.24,53.24,0,0,1-10.25,2,80.36,80.36,0,0,1-11.7.35,65.76,65.76,0,0,1-11.55-1.5,36.59,36.59,0,0,1-9.9-3.65l5.8-11.5a7,7,0,0,0,1.45,4.25,14.25,14.25,0,0,0,3.65,3.4,18.57,18.57,0,0,0,4.8,2.25,21.38,21.38,0,0,0,4.9.95,9.72,9.72,0,0,0,4.05-.5,3,3,0,0,0,1.25-5,24.69,24.69,0,0,0-3.1-3q-1.9-1.55-4.15-3.25a33.68,33.68,0,0,1-4.15-3.7,16.33,16.33,0,0,1-3-4.35,9.51,9.51,0,0,1-.8-5.15,15.65,15.65,0,0,1,4.1-9,24.31,24.31,0,0,1,8.4-5.7,45.87,45.87,0,0,1,11-3,81.78,81.78,0,0,1,12-.9,60.56,60.56,0,0,1,10.9.9,37.36,37.36,0,0,1,8.1,2.3Z"/><path class="cls-3" d="M393.45,285.25a7.44,7.44,0,0,1-.3,3.15,5,5,0,0,1-1.3,2.35,82.75,82.75,0,0,1-8.55,8.85,53.15,53.15,0,0,1-9.85,7A49.85,49.85,0,0,1,362,311a53,53,0,0,1-13.35,1.6,20.61,20.61,0,0,1-7.4-1.1,8.26,8.26,0,0,1-4-3,6.75,6.75,0,0,1-1-4.5,15.21,15.21,0,0,1,1.75-5.5l11.6-22.3q.9-2.2-.4-2.65a6,6,0,0,0-3.4.1,17.34,17.34,0,0,0-4.2,1.75,6,6,0,0,0-2.6,2.3l-17.1,32.8H295a11.68,11.68,0,0,0,1.4-1.45,17.42,17.42,0,0,0,1.3-1.8q.6-.95,1.15-1.85a13,13,0,0,0,.85-1.6l24.6-47.1q1.5-2.9,1.25-4.45a2.55,2.55,0,0,0-1.55-2.1,6,6,0,0,0-3.25-.25A19.87,19.87,0,0,0,313,253a8.32,8.32,0,0,0-2.4,2.25l-.4-3.1a33.55,33.55,0,0,1,7.2-6.1A50.38,50.38,0,0,1,326,241.7a49.69,49.69,0,0,1,9-2.6,46,46,0,0,1,8.5-.85,13.08,13.08,0,0,1,5.15.85,7.49,7.49,0,0,1,3,2.2,6.83,6.83,0,0,1,1.35,3,11.65,11.65,0,0,1,.1,3.4,16,16,0,0,1-.7,3.2,14.58,14.58,0,0,1-1,2.4l-8.2,16.2a5,5,0,0,0,1-.7,26.29,26.29,0,0,1,5.35-2.45,42,42,0,0,1,5-1.3,33.23,33.23,0,0,1,4.55-.55q2.15-.1,3.75-.1a14.52,14.52,0,0,1,6.7,1.35,9.78,9.78,0,0,1,3.85,3.3,8.7,8.7,0,0,1,1.4,4.15,7.27,7.27,0,0,1-.65,3.8l-8.7,17.1q-2.3,4.4-1.3,6.15a3.78,3.78,0,0,0,3.6,1.75,16.09,16.09,0,0,0,7-1.75,41.77,41.77,0,0,0,7.1-4.35,74.3,74.3,0,0,0,6.5-5.5Q391.35,287.55,393.45,285.25Z"/><path class="cls-3" d="M388.85,312.75q-9.3,0-11.4-4.5t2.2-12.6l12.6-23a13.81,13.81,0,0,0,1.4-3.65,6.8,6.8,0,0,0,.1-2.55h28.8a5.43,5.43,0,0,0-1.75,1.4,9,9,0,0,0-1.15,1.7l-12.7,24.6q-2.3,4.4-1.3,6.15a3.79,3.79,0,0,0,3.6,1.75,16.09,16.09,0,0,0,7-1.75,41.77,41.77,0,0,0,7.1-4.35,74.3,74.3,0,0,0,6.5-5.5q3-2.9,5.15-5.2a7.42,7.42,0,0,1-.3,3.15,5,5,0,0,1-1.3,2.35,85.67,85.67,0,0,1-8.5,8.85,52.68,52.68,0,0,1-9.85,7,48.45,48.45,0,0,1-11.8,4.55A59.72,59.72,0,0,1,388.85,312.75Zm29.4-79.8a11.39,11.39,0,0,1,5,1.05,8.54,8.54,0,0,1,5,6.9,11.7,11.7,0,0,1-.5,4.95,19.35,19.35,0,0,1-2.3,4.9,18.09,18.09,0,0,1-3.6,4,17.33,17.33,0,0,1-4.75,2.8,15.19,15.19,0,0,1-5.65,1.05,10.82,10.82,0,0,1-4.9-1.05,8.62,8.62,0,0,1-4.9-6.9,11.69,11.69,0,0,1,.5-4.95,14.49,14.49,0,0,1,2.15-5,18.27,18.27,0,0,1,8.55-6.8A14.94,14.94,0,0,1,418.25,232.95Z"/><path class="cls-3" d="M478.95,305.95a15.74,15.74,0,0,0-1.6,4.6q-.2,1.6.9,2.1a5.74,5.74,0,0,0,2.85.35,16.31,16.31,0,0,0,4-1,28.48,28.48,0,0,0,8-4.45,9,9,0,0,0,2.4-2.65l.1,3.8a31.43,31.43,0,0,1-7.7,6.2,63,63,0,0,1-19.85,7.45,49.54,49.54,0,0,1-9,.95,14.77,14.77,0,0,1-6-1,7,7,0,0,1-3.2-2.65,5.72,5.72,0,0,1-.75-3.75,11.92,11.92,0,0,1,1.45-4.3l.6-1.1,17.9-34.3q1.1-2.1-.35-2.55a7.43,7.43,0,0,0-3.8.1,18.39,18.39,0,0,0-4.7,1.85,6.65,6.65,0,0,0-2.95,2.6l-16.9,32.3h-27.6a9.3,9.3,0,0,0,3.5-3.25q1.4-2.15,2.2-3.65l15.1-28.9a8.61,8.61,0,0,0,1.15-3.8,4.15,4.15,0,0,0-1.35-3.5,33.22,33.22,0,0,1,5.2-1.65,49.65,49.65,0,0,1,6.35-1.1,39.84,39.84,0,0,1,6.25-.2,16.22,16.22,0,0,1,5,.95,4.42,4.42,0,0,1,2.7,2.45q.65,1.65-.85,4.25a38.41,38.41,0,0,1,11-5.75,42,42,0,0,1,13.15-2A14.84,14.84,0,0,1,489,265.8a11,11,0,0,1,4,3.3,8.29,8.29,0,0,1,1.6,4.1,6.84,6.84,0,0,1-.6,3.75Z"/><path class="cls-3" d="M580.15,266.45a30.12,30.12,0,0,0-2.75,3.9q-1.25,2.1-2.25,4.1l-20.9,40.7a27.54,27.54,0,0,1-6.2,8,36.16,36.16,0,0,1-9,5.85,52.92,52.92,0,0,1-10.95,3.65,61.23,61.23,0,0,1-12.2,1.4q-2,0-4.75-.15a38.26,38.26,0,0,1-5.65-.75,34.94,34.94,0,0,1-5.6-1.65,13.7,13.7,0,0,1-4.5-2.75l3.1-8a16,16,0,0,0,2,4.4,7.46,7.46,0,0,0,2.6,2.35,7.94,7.94,0,0,0,3.25.85q1.8.1,4.1.1,6-.4,11.1-6t10.5-16.55a25.57,25.57,0,0,1-8.25,5.1,25,25,0,0,1-8.65,1.6q-8.2-.1-12.3-4.3a14.81,14.81,0,0,1-4.1-10.8,28.59,28.59,0,0,1,3.25-13.75,32.6,32.6,0,0,1,8.55-10.25,40,40,0,0,1,12-6.5,49.18,49.18,0,0,1,13.85-2.6,29.06,29.06,0,0,1,6,.35,16.16,16.16,0,0,1,4.1,1.25,10.62,10.62,0,0,1,2.7,1.8,17.61,17.61,0,0,1,1.75,1.9l1.5-3.3Zm-33.9,11.3a15.55,15.55,0,0,0,.5-1.65,13.88,13.88,0,0,0,.4-2.3,5.4,5.4,0,0,0-.2-2.1,1.6,1.6,0,0,0-1.3-1.15q-1.3-.2-3,1.35a28.17,28.17,0,0,0-3.55,4q-1.85,2.5-3.7,5.6T532,287.7q-1.55,3.05-2.65,5.6a23.1,23.1,0,0,0-1.4,4,7.22,7.22,0,0,0-.25,3.6,2.64,2.64,0,0,0,1.3,2,2.54,2.54,0,0,0,2.3-.25,8.53,8.53,0,0,0,2.85-3q2.2-3.1,3.85-5.75t3-5.15q1.35-2.5,2.6-5.1T546.25,277.75Z"/><path class="cls-3" d="M291.79,379.06c0,4.74-3.42,9.42-8,14.16l-7.32,7.5h16.26v9.72H260.48v-7.92L275.24,387c2-2.1,3.54-4.5,3.54-6.18,0-1.86-1.32-2.88-3.66-2.88-3.3,0-7.44,2-11.4,5.34l-4.68-9c5.7-4,11.64-6.48,18-6.48C285.5,367.84,291.79,372.34,291.79,379.06Z"/><path class="cls-3" d="M301.7,407.38l4.74-8.76a14,14,0,0,0,8.58,2.76c6,0,8.94-3.18,8.88-8.88-1.86,2.22-4.92,3.78-9.24,3.78-8.28,0-13.62-5.58-13.62-13.74,0-9,6.48-14.7,16.14-14.7,11.64,0,18.66,8.16,18.66,21.06,0,13.38-7.86,22.08-20,22.08A29.41,29.41,0,0,1,301.7,407.38Zm21.06-24.9c0-2.76-1.68-4.68-5.1-4.68-3.24,0-5,1.62-5,4.8,0,2.94,1.74,4.56,4.92,4.56C320.89,387.16,322.75,385.36,322.75,382.48Z"/><path class="cls-3" d="M347.72,408.7a2.58,2.58,0,0,1-.5,1.48l-1.62,2.34h-1.88l1-2.36a1.7,1.7,0,0,1-.74-1.44,1.82,1.82,0,0,1,1.9-1.88A1.78,1.78,0,0,1,347.72,408.7Z"/><path class="cls-3" d="M350.79,409.42l1.58-2.92a4.66,4.66,0,0,0,2.86.92,2.63,2.63,0,0,0,3-3,3.86,3.86,0,0,1-3.08,1.26,4.3,4.3,0,0,1-4.54-4.58c0-3,2.16-4.9,5.38-4.9,3.88,0,6.22,2.72,6.22,7,0,4.46-2.62,7.36-6.68,7.36A9.8,9.8,0,0,1,350.79,409.42Zm7-8.3a1.49,1.49,0,0,0-1.7-1.56,1.47,1.47,0,0,0-1.68,1.6c0,1,.58,1.52,1.64,1.52S357.82,402.08,357.82,401.12Z"/><path class="cls-3" d="M248.41,377.68l2.42,2.56a8.52,8.52,0,0,1-6,2.7,7.17,7.17,0,0,1-7.1-5.06h-1.94v-1.6h1.66a5.24,5.24,0,0,1,0-.56,5.63,5.63,0,0,1,0-.58h-1.66v-1.58h2a7.28,7.28,0,0,1,7.24-4.94,8.28,8.28,0,0,1,5.8,2.48l-2.42,2.84a4.57,4.57,0,0,0-3.32-1.86,3.18,3.18,0,0,0-2.74,1.48h4.24v1.58h-4.8a4.92,4.92,0,0,0,0,.54c0,.2,0,.4,0,.6h4.8v1.6h-4.2a3.2,3.2,0,0,0,2.7,1.42A5,5,0,0,0,248.41,377.68Z"/><image width="500" height="500" transform="translate(589 -282)" xlink:href="Info Box Julia.png"/><path class="cls-3" d="M165.68,338h-2.61l1.25-2.13H168v15.08h-2.28Z"/><path class="cls-3" d="M176.32,343.1a3.71,3.71,0,0,1-1.66-3.19,4.11,4.11,0,0,1,1.26-3.07,4.36,4.36,0,0,1,3.15-1.23,4.27,4.27,0,0,1,3.13,1.23,4.12,4.12,0,0,1,1.25,3.08,3.79,3.79,0,0,1-1.65,3.17,3.5,3.5,0,0,1,1.43,1.43,4.23,4.23,0,0,1,.53,2.11,4.38,4.38,0,0,1-1.31,3.28,4.59,4.59,0,0,1-3.35,1.28,4.81,4.81,0,0,1-3.45-1.29,4.27,4.27,0,0,1-1.37-3.24A3.64,3.64,0,0,1,176.32,343.1Zm.2,3.48a2.5,2.5,0,0,0,.72,1.8,2.5,2.5,0,0,0,3.54,0,2.52,2.52,0,0,0,0-3.55,2.5,2.5,0,0,0-4.27,1.75Zm.28-6.68a2.25,2.25,0,0,0,2.26,2.29,2.26,2.26,0,1,0-1.59-3.85A2.14,2.14,0,0,0,176.8,339.9Z"/><path class="cls-3" d="M187.78,343.31a9.09,9.09,0,0,1,1.68-5.75,4.39,4.39,0,0,1,7.29,0,11,11,0,0,1,0,11.69,4.47,4.47,0,0,1-3.63,1.94,4.52,4.52,0,0,1-3.65-1.94A9.41,9.41,0,0,1,187.78,343.31Zm2.24,0a8.92,8.92,0,0,0,.87,4.17,2.32,2.32,0,0,0,4.43,0,10,10,0,0,0,0-8.19,2.32,2.32,0,0,0-4.42,0A8.33,8.33,0,0,0,190,343.32Z"/><path class="cls-3" d="M211.6,350.72q0,.67,0,1.19a8.28,8.28,0,0,1-.12.9,4,4,0,0,1-.92,1.85,4.45,4.45,0,0,1-3.54,1.48,4.73,4.73,0,0,1-3.13-1,4.19,4.19,0,0,1-1.46-2.92h2.21a2.49,2.49,0,0,0,.42,1.08,2.36,2.36,0,0,0,2,.89q2.41,0,2.41-3v-1.33a4.1,4.1,0,0,1-3,1.34,4.05,4.05,0,0,1-3.18-1.41,5.21,5.21,0,0,1-1.25-3.56,5.48,5.48,0,0,1,1.16-3.54,4,4,0,0,1,3.3-1.54,3.84,3.84,0,0,1,3,1.34v-1.07h2.2Zm-2.11-4.51a3.21,3.21,0,0,0-.74-2.22,2.45,2.45,0,0,0-1.92-.85,2.37,2.37,0,0,0-2,.93,3.37,3.37,0,0,0-.65,2.15,3.33,3.33,0,0,0,.65,2.13,2.37,2.37,0,0,0,2,.91,2.41,2.41,0,0,0,2-.92A3.27,3.27,0,0,0,209.49,346.21Z"/><path class="cls-3" d="M233.22,350.72q0,.67,0,1.19a8,8,0,0,1-.12.9,4,4,0,0,1-.92,1.85,4.45,4.45,0,0,1-3.54,1.48,4.73,4.73,0,0,1-3.13-1A4.2,4.2,0,0,1,224,352.2h2.21a2.5,2.5,0,0,0,.42,1.08,2.36,2.36,0,0,0,2,.89q2.41,0,2.41-3v-1.33a4.1,4.1,0,0,1-3,1.34,4.05,4.05,0,0,1-3.18-1.41,5.21,5.21,0,0,1-1.25-3.56,5.49,5.49,0,0,1,1.16-3.54,4,4,0,0,1,3.3-1.54,3.84,3.84,0,0,1,3,1.34v-1.07h2.2Zm-2.11-4.51a3.2,3.2,0,0,0-.74-2.22,2.45,2.45,0,0,0-1.92-.85,2.37,2.37,0,0,0-2,.93,3.37,3.37,0,0,0-.65,2.15,3.34,3.34,0,0,0,.65,2.13,2.37,2.37,0,0,0,2,.91,2.41,2.41,0,0,0,2-.92A3.27,3.27,0,0,0,231.11,346.21Z"/><path class="cls-3" d="M244.75,341.43H247v9.51h-2.21v-1a4.22,4.22,0,0,1-6.18-.16,5.29,5.29,0,0,1-1.28-3.63,5.14,5.14,0,0,1,1.28-3.56,4.13,4.13,0,0,1,3.2-1.43,4.05,4.05,0,0,1,3,1.37Zm-5.21,4.73a3.31,3.31,0,0,0,.73,2.23,2.4,2.4,0,0,0,1.89.87,2.52,2.52,0,0,0,2-.84,3.61,3.61,0,0,0,0-4.41,2.49,2.49,0,0,0-2-.85,2.43,2.43,0,0,0-1.89.86A3.17,3.17,0,0,0,239.53,346.16Z"/><path class="cls-3" d="M253.73,343.48v7.46h-2.2v-7.46h-.94v-2.05h.94v-3.49h2.2v3.49h1.71v2.05Z"/><path class="cls-3" d="M267.51,346.71H260.7a2.89,2.89,0,0,0,.76,1.87,2.32,2.32,0,0,0,1.73.68,2.24,2.24,0,0,0,1.36-.39,5.55,5.55,0,0,0,1.2-1.45l1.86,1a7.41,7.41,0,0,1-.91,1.26,4.82,4.82,0,0,1-1,.86,4.08,4.08,0,0,1-1.18.49,5.68,5.68,0,0,1-1.38.16,4.48,4.48,0,0,1-3.42-1.37,5.13,5.13,0,0,1-1.29-3.65,5.27,5.27,0,0,1,1.25-3.65,4.76,4.76,0,0,1,6.66,0,5.26,5.26,0,0,1,1.21,3.68Zm-2.26-1.8a2.1,2.1,0,0,0-2.22-1.76,2.26,2.26,0,0,0-.75.12,2.1,2.1,0,0,0-.64.35,2.23,2.23,0,0,0-.49.55,2.58,2.58,0,0,0-.31.73Z"/><path class="cls-3" d="M273.93,343.48v7.46h-2.21v-7.46h-.78v-2.05h.78v-3.67a4,4,0,0,1,.63-2.54,3.07,3.07,0,0,1,2.5-1,4.33,4.33,0,0,1,1.47.34v2.25l-.22-.12a2.76,2.76,0,0,0-1.17-.36.8.8,0,0,0-.79.42,4,4,0,0,0-.21,1.58v3.13h2.39v2.05Z"/><path class="cls-3" d="M279.13,346.12a4.73,4.73,0,0,1,1.47-3.51,5.2,5.2,0,0,1,7.21,0,5.09,5.09,0,0,1,0,7.16,5,5,0,0,1-3.64,1.44,4.83,4.83,0,0,1-3.58-1.46A4.92,4.92,0,0,1,279.13,346.12Zm2.25,0a3.21,3.21,0,0,0,.76,2.26,3,3,0,0,0,4.12,0,3.57,3.57,0,0,0,0-4.43,2.92,2.92,0,0,0-4.1,0A3.06,3.06,0,0,0,281.37,346.16Z"/><path class="cls-3" d="M295.54,334.45v16.49h-2.2V334.45Z"/><path class="cls-3" d="M307.07,334.45h2.21v16.49h-2.21v-1a4.09,4.09,0,0,1-2.94,1.27,4.18,4.18,0,0,1-3.24-1.43,5.3,5.3,0,0,1-1.28-3.63,5.13,5.13,0,0,1,1.28-3.55,4.11,4.11,0,0,1,6.18-.07Zm-5.21,11.71a3.31,3.31,0,0,0,.73,2.23,2.4,2.4,0,0,0,1.89.87,2.52,2.52,0,0,0,2-.84,3.61,3.61,0,0,0,0-4.41,2.49,2.49,0,0,0-2-.85,2.43,2.43,0,0,0-1.89.86A3.17,3.17,0,0,0,301.85,346.16Z"/><path class="cls-3" d="M330.9,350.72q0,.67,0,1.19a8.28,8.28,0,0,1-.12.9,4,4,0,0,1-.92,1.85,4.45,4.45,0,0,1-3.54,1.48,4.73,4.73,0,0,1-3.13-1,4.19,4.19,0,0,1-1.46-2.92h2.21a2.5,2.5,0,0,0,.42,1.08,2.36,2.36,0,0,0,2,.89q2.41,0,2.41-3v-1.33a4.1,4.1,0,0,1-3,1.34,4.05,4.05,0,0,1-3.18-1.41,5.21,5.21,0,0,1-1.25-3.56,5.49,5.49,0,0,1,1.16-3.54,4,4,0,0,1,3.3-1.54,3.84,3.84,0,0,1,3,1.34v-1.07h2.2Zm-2.11-4.51A3.2,3.2,0,0,0,328,344a2.45,2.45,0,0,0-1.92-.85,2.37,2.37,0,0,0-2,.93,3.37,3.37,0,0,0-.65,2.15,3.33,3.33,0,0,0,.65,2.13,2.37,2.37,0,0,0,2,.91,2.41,2.41,0,0,0,2-.92A3.27,3.27,0,0,0,328.79,346.21Z"/><path class="cls-3" d="M335.42,341.43h2.2v.85a4.22,4.22,0,0,1,1.07-.87,2.47,2.47,0,0,1,1.13-.24,3.56,3.56,0,0,1,1.82.57l-1,2a2.1,2.1,0,0,0-1.22-.45q-1.8,0-1.8,2.71v4.93h-2.2Z"/><path class="cls-3" d="M353.16,346.71h-6.82a2.89,2.89,0,0,0,.76,1.87,2.32,2.32,0,0,0,1.73.68,2.24,2.24,0,0,0,1.36-.39,5.55,5.55,0,0,0,1.2-1.45l1.86,1a7.41,7.41,0,0,1-.91,1.26,4.86,4.86,0,0,1-1,.86,4.09,4.09,0,0,1-1.18.49,5.68,5.68,0,0,1-1.38.16,4.48,4.48,0,0,1-3.42-1.37A5.13,5.13,0,0,1,344,346.2a5.27,5.27,0,0,1,1.25-3.65,4.76,4.76,0,0,1,6.66,0,5.26,5.26,0,0,1,1.21,3.68Zm-2.26-1.8a2.1,2.1,0,0,0-2.22-1.76,2.26,2.26,0,0,0-.75.12,2.1,2.1,0,0,0-.64.35,2.21,2.21,0,0,0-.49.55,2.56,2.56,0,0,0-.31.73Z"/><path class="cls-3" d="M366,346.71h-6.82a2.89,2.89,0,0,0,.76,1.87,2.32,2.32,0,0,0,1.73.68,2.24,2.24,0,0,0,1.36-.39,5.55,5.55,0,0,0,1.2-1.45l1.86,1a7.41,7.41,0,0,1-.91,1.26,4.86,4.86,0,0,1-1,.86,4.09,4.09,0,0,1-1.18.49,5.68,5.68,0,0,1-1.38.16,4.48,4.48,0,0,1-3.42-1.37,5.13,5.13,0,0,1-1.29-3.65,5.27,5.27,0,0,1,1.25-3.65,4.76,4.76,0,0,1,6.66,0,5.26,5.26,0,0,1,1.21,3.68Zm-2.26-1.8a2.1,2.1,0,0,0-2.22-1.76,2.26,2.26,0,0,0-.75.12,2.1,2.1,0,0,0-.64.35,2.21,2.21,0,0,0-.49.55,2.56,2.56,0,0,0-.31.73Z"/><path class="cls-3" d="M370.11,341.43h2.21v.88a3.6,3.6,0,0,1,2.6-1.14,3.28,3.28,0,0,1,2.59,1,4.28,4.28,0,0,1,.8,2.9v5.83h-2.21v-5.31a3.48,3.48,0,0,0-.39-1.94,1.58,1.58,0,0,0-1.39-.55,1.7,1.7,0,0,0-1.55.72,5,5,0,0,0-.45,2.49v4.59h-2.21Z"/><path class="cls-3" d="M391.91,341.43l2.46,5.34,2.45-5.34h2.47l-4.94,10.17-4.9-10.17Z"/><path class="cls-3" d="M402.18,337.48a1.43,1.43,0,0,1,1.43-1.42,1.39,1.39,0,0,1,1,.42,1.35,1.35,0,0,1,.42,1,1.38,1.38,0,0,1-.42,1,1.35,1.35,0,0,1-1,.42,1.43,1.43,0,0,1-1.44-1.45Zm2.53,4v9.51h-2.2v-9.51Z"/><path class="cls-3" d="M409.24,341.43h2.21v.88a3.6,3.6,0,0,1,2.6-1.14,3.28,3.28,0,0,1,2.59,1,4.28,4.28,0,0,1,.8,2.9v5.83h-2.21v-5.31a3.48,3.48,0,0,0-.39-1.94,1.58,1.58,0,0,0-1.39-.55,1.7,1.7,0,0,0-1.55.72,5,5,0,0,0-.45,2.49v4.59h-2.21Z"/><path class="cls-3" d="M424.62,349.18l-4.28-7.74h2.55l2.91,5.47,2.71-5.47H431l-7.58,14.69h-2.51Z"/><path class="cls-3" d="M436.6,334.45v16.49h-2.2V334.45Z"/></svg>