<svg xmlns="http://www.w3.org/2000/svg" viewBox="0 0 175.1 27.94"><defs><style>.cls-1{fill:#fff;fill-rule:evenodd;}</style></defs><title>LogoWhite</title><g id="Layer_2" data-name="Layer 2"><g id="Layer_1-2" data-name="Layer 1"><path class="cls-1" d="M19.72,4.39a.91.91,0,0,0-.6-.45H17.88c-.38,0-.49.42-.43.84L19.6,23a.9.9,0,0,0,.13.34.75.75,0,0,0,.61.45h1.17c.43,0,.56-.32.47-1.06L19.86,4.76a1,1,0,0,0-.14-.38ZM65.44,16.3h-.1l1.33,11.64H61.74L59.07,5.35,58.44,0H67.7c1.55,0,3,1.83,3.25,3.67l.82,6.77a3.17,3.17,0,0,1-1.1,3.23c-.77.53-.46.42.11.64a3,3,0,0,1,1.75,2.39l1.27,11.22H69.09L67.86,17.59c-.14-1-.53-1.27-1.12-1.29Zm0-12.17h.2c.39,0,.57.57.63,1.16l.67,6c.06.52-.08.68-.34.67H65.26c-.45,0-.61-.7-.67-1.24L64,5c0-.45-.07-.84.38-.84Zm-6.37,23.8h.63l-.43-4.2H55.41l-.92-7.38h3.73L57.84,12H54l-.87-7.78h3.77L56.45,0h-8.9l.35,2.89,3,25ZM48.23,23.49a3.57,3.57,0,0,1-.34,1.82,4.3,4.3,0,0,1-3.17,2.6H41.21A2.89,2.89,0,0,1,39,26.64a3.91,3.91,0,0,1-2.17,1.29H32.69c-3.51-.24-3.63-3.07-4-5.66l-2.17-19L26.19,0h4.92l2.74,22.91c.06.38.06.61.39.61H35.7c.32,0,.46-.29.42-.66L33.51,0h4.92l2.65,22.82c0,.28.06.71.35.7h1.45c.28,0,.31-.32.24-.85L40.51,0h4.93l2.79,23.48ZM26.57,21.34l.31,2.57a4.74,4.74,0,0,1-.31,2.77,2.3,2.3,0,0,1-2.07,1.26H18.77a4.29,4.29,0,0,1-3.9-4.11L12.49,3.44c-.24-2,.67-3.31,2.74-3.42h5.84a3.74,3.74,0,0,1,3.31,3.1l2.19,18.23ZM6.24,27.94,3.51,4.72h-3L0,0H10.8l.46,4.71H8.44l2.68,23.23Z"/><path class="cls-1" d="M86,4.13h-1.1c-.45,0-.41.39-.38.84l.63,5.74c.06.54.21,1.24.66,1.24h1.34c.25,0,.39-.15.34-.67l-.66-6c-.07-.59-.24-1.13-.64-1.16Zm75.19,21a2.51,2.51,0,0,1-.28,1.51,2.43,2.43,0,0,1-1.84,1.27h-9.44L146.79,5.25,146.15,0H155a4,4,0,0,1,3.65,3.35l2.53,21.78Zm-.28-20,.92,7.05c.21,1,.92,1.29,1.75,1.79l5.15,2.65a2.05,2.05,0,0,1,.89,1.55l.5,4.5c0,.22.08.8-.36.8h-1.29c-.34,0-.53-.39-.57-.61l-.64-4.68h-4.68l.53,6.08a4,4,0,0,0,3.8,3.72H172a2.93,2.93,0,0,0,3.06-3l-.87-9.55c-.08-.92-1.24-1.77-1.72-2.11a14.89,14.89,0,0,0-2.21-1.22l-2.68-1.19a2.18,2.18,0,0,1-1.41-2l-.64-4.16c-.08-.47,0-.74.39-.74h1.23a.78.78,0,0,1,.6.67l.66,4.64h5l-.59-5.64A3.86,3.86,0,0,0,169.21,0h-6.13a2.5,2.5,0,0,0-2.18,1.37,2.92,2.92,0,0,0-.25,1.76l.25,2Zm-7.08-.28c0,.11.06.22.07.32l2,17.59c.1.87-.08.95-.34.95h-1.59l-.13-1.19L151.74,4.23h1.54c.24,0,.43.29.54.6Zm-7,23.1h.64l-.64-5.69-.63-5.53a3,3,0,0,0-1.75-2.39c-.57-.22-.87-.11-.11-.64a3.17,3.17,0,0,0,1.1-3.23l-.82-6.77c-.22-1.84-1.69-3.63-3.24-3.67h-9.27l.39,3.3,2.91,24.63h4.93l-1.22-10.78-.1-.85h1.38c.59,0,1,.29,1.12,1.29l1.23,10.35Zm-7.71-23.8h.18c.41,0,.57.57.63,1.16l.67,6c.06.52-.08.68-.34.67h-1.34c-.45,0-.6-.7-.66-1.24L137.6,5c0-.45-.08-.84.36-.84Zm-6.62,22.59a4.72,4.72,0,0,0,.34-2.81l-.34-2.75-2.17-18A3.74,3.74,0,0,0,127,0h-5.84a2.68,2.68,0,0,0-2.53,1.52,3.77,3.77,0,0,0-.21,1.9l.21,1.82,2.18,18.58a4.66,4.66,0,0,0,2.51,3.79,4,4,0,0,0,1.38.32h5.73a2.29,2.29,0,0,0,2.05-1.22ZM125.63,4.39a.87.87,0,0,1,.15.38l2.12,17.95c.08.74-.06,1-.47,1.06h-1.17a.81.81,0,0,1-.63-.43,1.43,1.43,0,0,1-.11-.35L123.37,4.78c-.07-.42,0-.84.42-.84H125a.86.86,0,0,1,.6.45Zm-7,22.22a1.78,1.78,0,0,0,.25-1l-.25-2.26-.49-4.57h-4.62l.43,4.27c.07.59,0,.73-.5.71h-1.1c-.52,0-.66-.6-.71-1.12l-1.4-12.19-.64-5.6c0-.32-.06-.71.36-.71h1.27c.53,0,.66.82.68,1l.49,4.3h4.57l-.74-6.26c-.34-1.9-1.87-3.2-3.1-3.16h-6.27a3,3,0,0,0-1.93,1.2,2.43,2.43,0,0,0-.42,1.73l.42,3.73,2,18a3.45,3.45,0,0,0,2.74,3.25h7.28a2.51,2.51,0,0,0,1.7-1.33Zm-13.7,1.33h.4l-.4-4,0-.24H101l-.92-7.38h3.73L103.45,12H99.57L98.7,4.23h3.77L102,0H93.15l.59,5L96,24.11l.45,3.83Zm-11.16,0h.59l-.59-5.18-.68-6a3,3,0,0,0-1.75-2.39c-.57-.22-.87-.11-.11-.64a3.2,3.2,0,0,0,1.12-3.23l-.84-6.77C91.25,1.84,89.79.06,88.24,0H79l3.31,27.92H87.2L86,17.15l-.1-.85h1.38c.57,0,1,.29,1.1,1.29l1.23,10.35Z"/></g></g></svg>