<svg xmlns="http://www.w3.org/2000/svg" viewBox="0 0 156.33 159.08"><title>SearchIcon</title><g id="Layer_2" data-name="Layer 2"><g id="Layer_1-2" data-name="Layer 1"><path d="M111.77,92.94c7.42,7.7,14.52,15.16,21.73,22.51C139.94,122,146.65,128.34,153,135c4.25,4.48,4.38,12.29.79,17.71a13.71,13.71,0,0,1-16,5.56,17.63,17.63,0,0,1-6-3.88c-11.22-11-22.33-22.07-33.45-33.15-2.36-2.35-4.59-4.83-6.81-7.18-2.91,1.42-5.37,2.79-7.95,3.86-15.78,6.54-31.61,6.59-47.27-.25-15.12-6.6-25.7-17.84-31.75-33.12a60.9,60.9,0,0,1-.76-44C9.63,24,20.6,12,36.68,5A56.94,56.94,0,0,1,80.25,3.7c18.56,6.79,30.76,20,37,38.58a60.86,60.86,0,0,1,1,35A64.32,64.32,0,0,1,111.77,92.94ZM96,61.37c0-20.16-16.15-36.56-35.93-36.5S24.32,41.29,24.32,61.36,40.48,98,60.16,98,96,81.5,96,61.37Z"/></g></g></svg>