<svg xmlns="http://www.w3.org/2000/svg" viewBox="0 0 542.22 220.23"><defs><style>.cls-1{font-size:28.32px;font-family:Courier, Courier;}.cls-1,.cls-2{fill:#eda9c0;}</style></defs><title>TitleTyler</title><g id="Layer_2" data-name="Layer 2"><g id="Layer_1-2" data-name="Layer 1"><g id="Tyler"><text class="cls-1" transform="translate(118.14 22.36)">TYLER, THE CREATOR</text><path class="cls-2" d="M99.71,58.63l-4.4-11.77h51.82L136.24,91.33l1,.49c1.79-2.06,3.56-4.14,5.36-6.19,19.09-21.75,43.41-31,72-29.66a32.35,32.35,0,0,1,13.81,3.46c4.21,2.34,6.92,1.69,10.07-1a41.79,41.79,0,0,1,4.08-2.73l31,31.82c-8,5.54-15.07,10.41-22.11,15.25-7.51,5.16-15,10.37-22.59,15.42-1.51,1-3.15,3.36-5.25.17C208.78,96,187,102.95,176.67,120.49c-6.67,11.32-10.54,23.56-7.11,36.9,2.1,8.17,6,15.37,15,17.53,10.19,2.44,19-.22,26-8.29a16.72,16.72,0,0,0,1.92-2.88c.21-.38.08-1,.13-2H190.89c1.39-4.23,2.46-7.61,3.62-11,2.73-7.84,5.57-15.63,8.26-23.49,1-2.88,2.43-3.51,5.58-3.08,4.16.57,8.49-.15,12.75-.16,13.4,0,26.81-.3,40.2.11,5.55.17,8.27-2,10.2-6.86a97.17,97.17,0,0,1,26-37.13c18.21-16.3,39.36-25.32,64.06-24.36,20.25.79,36.84,8.83,48.14,26.3.33.51,1,.82,2.13,1.73,2.06-6.45,4.15-12.46,5.86-18.56,1.31-4.67,3.16-7.18,8.9-6.61,7.79.78,15.72.19,24.21.19l-5.54-11,1-1c11.47,3.17,22.87,6.64,34.45,9.39,6.14,1.46,12.57,1.78,18.89,2.46,25.8,2.77,37.65,21.31,41.82,40.74,2.34,10.92-.25,20.86-4.61,31.12-4.59,10.8-11.39,19.34-19.94,26.82-2.77,2.42-6.14,4.17-9.43,6.35l31.57,53.92h-33.2c-6.5,0-13-.27-19.49.08-3.67.2-5.29-1.19-6.55-4.41-3.88-10-8-19.86-12.1-29.77-.29-.7-.84-1.29-2.45-1.86l-3.84,35.71H409.37L425,101.91h-6.37c0,8.12.83,16.16-.22,23.94a127,127,0,0,1-6.5,27.26,129.42,129.42,0,0,1-13.42,26.67c-10.19,15.21-24.19,26-41.35,33.05-19.39,8-38.8,9.71-58.58,2.86-19.5-6.76-30.44-21.28-34.9-41.07-.22-1-.43-1.92-.68-2.87,0-.11-.25-.18-.72-.49-.48.28-1.51.5-1.71,1C256.47,183,249.07,191,240.6,198.44c-8.21,7.17-17.17,13.06-27.48,16.45-24.83,8.16-48.93,8-71.15-7.87-7.69-5.5-13.2-12.92-18-22.87-1.67,6.45-3,11.44-4.26,16.44-.74,2.9-1.42,5.81-2.14,8.71-2.07,8.3-2.08,8.31-10.33,8.3H0c1-4.68,1.87-8.77,2.86-12.83,2.55-10.49,5.32-20.92,7.66-31.45.67-3,2-3.65,4.71-3.6,8.83.15,17.67-.11,26.5.15,3.56.11,5-1.24,5.86-4.5,1.32-5.12,3.06-10.14,4.85-15.9L43,150.64l13.64-44H26c2.06-8.78,3.91-16.78,5.82-24.77,1.55-6.46,3.44-12.86,4.7-19.37.63-3.23,2.08-3.91,5-3.89,17.5.11,35,.05,52.5.05ZM315.48,135.3l6.85.46a43.67,43.67,0,0,1-1.56,5.63c-2.72,6.45-5.44,13.05-2.29,19.92,4.39,9.55,15.68,12.19,26.55,6.7a41.53,41.53,0,0,0,22.48-40.1c-.8-10-5.9-17.17-14.92-19.33-6.68-1.6-13.26-1.5-19.52,3A45.67,45.67,0,0,0,315.48,135.3ZM105.3,127.08l-12.77,42.1h26.85c-3.26-21.92.55-42.34,9-62.66-8.19,0-15.17-.06-22.14.07-.94,0-2.44.73-2.7,1.46-2.24,6.35-4.25,12.78-6.59,20Zm364.83,2c6.47.88,12.19.47,17.24-2.87s7.54-13.53,5-19c-2.12-4.59-10.52-7.53-16.78-5.74-.8.23-1.9,1.08-2,1.78C472.38,111.78,471.3,120.28,470.13,129.12Z"/><path class="cls-2" d="M121.46,11.55a2.67,2.67,0,0,1-.24,1.32,1,1,0,0,1-.84.28,1,1,0,0,1-.73-.26,1.06,1.06,0,0,1-.24-.75q0-.43,0-.65l.14-4.56a1,1,0,0,1,.28-.74,1.12,1.12,0,0,1,.77-.23h12a1.12,1.12,0,0,1,.77.23,1,1,0,0,1,.26.74l.15,4.56c0,.17,0,.32,0,.47s0,.22,0,.21a1,1,0,0,1-.26.74,1.13,1.13,0,0,1-.79.24.89.89,0,0,1-.76-.28,2.75,2.75,0,0,1-.23-1.32L131.68,8h-4V20.41h2.67a1.27,1.27,0,0,1,.84.23.91.91,0,0,1,.26.73,1,1,0,0,1-.25.74,1,1,0,0,1-.72.26h-7.76a1,1,0,0,1-.72-.26,1,1,0,0,1-.25-.74.9.9,0,0,1,.27-.73,1.47,1.47,0,0,1,.92-.22h2.59V8h-4Z"/><path class="cls-2" d="M146.67,20.41a2.88,2.88,0,0,1,1.36.2.85.85,0,0,1,.3.75.9.9,0,0,1-.3.78,2.26,2.26,0,0,1-1.2.21h-6.57a2.21,2.21,0,0,1-1.19-.21.91.91,0,0,1-.29-.78.81.81,0,0,1,.33-.75,2.94,2.94,0,0,1,1.35-.2h2V15.82L137.86,8h-.24a2,2,0,0,1-1.13-.22.89.89,0,0,1-.3-.77,1,1,0,0,1,.26-.75,1.13,1.13,0,0,1,.8-.24H141a1.91,1.91,0,0,1,1.1.22.93.93,0,0,1,.28.77.85.85,0,0,1-.34.77,2.43,2.43,0,0,1-1.24.22h-.46l3.35,6,3.47-6h-.57a1.77,1.77,0,0,1-1-.22A.92.92,0,0,1,145.3,7a1,1,0,0,1,.25-.79A2.34,2.34,0,0,1,146.81,6h2.54a2.69,2.69,0,0,1,1.35.21A.9.9,0,0,1,151,7a.91.91,0,0,1-.3.77,2,2,0,0,1-1.13.22h-.22L144.65,16v4.4Z"/><path class="cls-2" d="M165.84,16.79a2.77,2.77,0,0,1,.21-1.34.89.89,0,0,1,.79-.3,1,1,0,0,1,.75.26,1.1,1.1,0,0,1,.25.79v5.14a1,1,0,0,1-.26.75,1,1,0,0,1-.73.27H153.92a.88.88,0,0,1-1-1,.85.85,0,0,1,.3-.75,2.84,2.84,0,0,1,1.35-.2h1.73V8h-1.73a2.68,2.68,0,0,1-1.33-.21.88.88,0,0,1-.31-.78,1,1,0,0,1,.26-.75A1.13,1.13,0,0,1,154,6h7.48a1.06,1.06,0,0,1,.76.25,1,1,0,0,1,.26.75.88.88,0,0,1-.31.78,2.76,2.76,0,0,1-1.36.21h-2.32V20.41h7.36Z"/><path class="cls-2" d="M171.7,22.36h-.65a1,1,0,0,1-.75-.25,1,1,0,0,1-.26-.75.85.85,0,0,1,.3-.75,2.88,2.88,0,0,1,1.36-.2h.89V8h-.89a2.72,2.72,0,0,1-1.35-.21A.88.88,0,0,1,170,7a1,1,0,0,1,.26-.75,1.1,1.1,0,0,1,.78-.24h12a.89.89,0,0,1,.71.28,1.24,1.24,0,0,1,.24.82v3.26a1.73,1.73,0,0,1-.21,1,.88.88,0,0,1-.75.28.89.89,0,0,1-.78-.3,2.76,2.76,0,0,1-.21-1.37V8h-7.36v4.66h3.62v-.73a1.93,1.93,0,0,1,.2-1,.79.79,0,0,1,.7-.29.72.72,0,0,1,.67.31,3,3,0,0,1,.19,1.33v2.57A2.84,2.84,0,0,1,180,16.1a.77.77,0,0,1-.69.29.72.72,0,0,1-.68-.33,3,3,0,0,1-.19-1.29v-.48h-3.62v6.13h7.36V18.17a2.76,2.76,0,0,1,.21-1.37.89.89,0,0,1,.78-.3.87.87,0,0,1,.74.28,1.89,1.89,0,0,1,.21,1.07v3.49a1.06,1.06,0,0,1-.25.76.93.93,0,0,1-.71.26Z"/><path class="cls-2" d="M191.53,20.41h.94a2.14,2.14,0,0,1,1.13.22.81.81,0,0,1,.33.73.91.91,0,0,1-.29.77,1.9,1.9,0,0,1-1.09.22h-4.65a1,1,0,0,1-.72-.26,1,1,0,0,1-.25-.74.89.89,0,0,1,.28-.73,1.47,1.47,0,0,1,.91-.22h1.26V7.83h-.8a2.92,2.92,0,0,1-1.34-.19.8.8,0,0,1-.3-.73.94.94,0,0,1,.24-.71,1,1,0,0,1,.73-.23h5.84a18.21,18.21,0,0,1,3.16.2,4.73,4.73,0,0,1,1.76.68,4.4,4.4,0,0,1,1.46,1.65,4.7,4.7,0,0,1,.53,2.2,4.07,4.07,0,0,1-1,2.73A5.11,5.11,0,0,1,197,15a3.23,3.23,0,0,1,.64.48,4.27,4.27,0,0,1,.55.66l2.78,4.26h.46a1.9,1.9,0,0,1,1.06.21.86.86,0,0,1,.29.74,1,1,0,0,1-.24.74.93.93,0,0,1-.71.26h-1.56q-.68,0-1.33-1l-.12-.14-2.66-4a6.08,6.08,0,0,0-1.35-1.59,2.47,2.47,0,0,0-1.4-.36h-1.84Zm0-12.58v5.59h2.86a5,5,0,0,0,2.91-.7,2.4,2.4,0,0,0,1-2.08,2.45,2.45,0,0,0-1-2.1,4.77,4.77,0,0,0-2.85-.71Z"/><path class="cls-2" d="M210,18.5a1,1,0,0,1,.29-.6,1.06,1.06,0,0,1,.61-.13h3a.59.59,0,0,1,.33.08.25.25,0,0,1,.12.21.8.8,0,0,1,0,.18.83.83,0,0,1-.08.21l-3.8,7.91a.86.86,0,0,1-.26.33.59.59,0,0,1-.36.13h-.09l-.16-.06-1-.36a.94.94,0,0,1-.33-.22.42.42,0,0,1-.11-.29v-.21a.35.35,0,0,1,0-.13Z"/><path class="cls-2" d="M240.44,11.55a2.67,2.67,0,0,1-.24,1.32,1,1,0,0,1-.84.28,1,1,0,0,1-.73-.26,1.06,1.06,0,0,1-.24-.75q0-.43,0-.65l.14-4.56a1,1,0,0,1,.28-.74,1.12,1.12,0,0,1,.77-.23h12a1.12,1.12,0,0,1,.77.23,1,1,0,0,1,.26.74l.15,4.56c0,.17,0,.32,0,.47s0,.22,0,.21a1,1,0,0,1-.26.74,1.13,1.13,0,0,1-.79.24.89.89,0,0,1-.76-.28,2.75,2.75,0,0,1-.23-1.32L250.66,8h-4V20.41h2.67a1.27,1.27,0,0,1,.84.23.91.91,0,0,1,.26.73,1,1,0,0,1-.25.74,1,1,0,0,1-.72.26h-7.76a1,1,0,0,1-.72-.26,1,1,0,0,1-.25-.74.9.9,0,0,1,.27-.73,1.47,1.47,0,0,1,.92-.22h2.59V8h-4Z"/><path class="cls-2" d="M259.3,20.41h.93a2.18,2.18,0,0,1,1.15.22.81.81,0,0,1,.33.73.91.91,0,0,1-.29.78,2.44,2.44,0,0,1-1.27.21h-3.65a1.06,1.06,0,0,1-.77-.25,1,1,0,0,1-.26-.75.85.85,0,0,1,.3-.75,2.12,2.12,0,0,1,1.13-.21h.25V8h-.22a2.08,2.08,0,0,1-1.14-.22.89.89,0,0,1-.31-.77,1,1,0,0,1,.26-.75,1.12,1.12,0,0,1,.79-.24H260a2.85,2.85,0,0,1,1.4.21.9.9,0,0,1,.3.78.82.82,0,0,1-.37.77,3,3,0,0,1-1.41.22h-.62v4.81h6.62V8H265a2,2,0,0,1-1.13-.24.86.86,0,0,1-.34-.76.88.88,0,0,1,.31-.78A3.3,3.3,0,0,1,265.36,6h3.37a1,1,0,0,1,.75.25,1,1,0,0,1,.26.75.92.92,0,0,1-.29.77,1.74,1.74,0,0,1-1,.23h-.33V20.41h.22a2.11,2.11,0,0,1,1.13.21.84.84,0,0,1,.3.74.92.92,0,0,1-.29.78,2.64,2.64,0,0,1-1.34.21h-2.86a2.94,2.94,0,0,1-1.42-.21.89.89,0,0,1-.3-.78.79.79,0,0,1,.36-.75,3,3,0,0,1,1.37-.21h.68V14.66H259.3Z"/><path class="cls-2" d="M273.68,22.36H273a1,1,0,0,1-.75-.25,1,1,0,0,1-.26-.75.85.85,0,0,1,.3-.75,2.88,2.88,0,0,1,1.36-.2h.88V8h-.88a2.72,2.72,0,0,1-1.35-.21A.88.88,0,0,1,272,7a1,1,0,0,1,.26-.75,1.1,1.1,0,0,1,.78-.24h12a.88.88,0,0,1,.71.28,1.23,1.23,0,0,1,.24.82v3.26a1.73,1.73,0,0,1-.21,1,.88.88,0,0,1-.75.28.89.89,0,0,1-.78-.3,2.77,2.77,0,0,1-.21-1.37V8h-7.36v4.66h3.62v-.73a1.92,1.92,0,0,1,.2-1,.79.79,0,0,1,.7-.29.72.72,0,0,1,.67.31,3,3,0,0,1,.19,1.33v2.57a2.83,2.83,0,0,1-.2,1.33.77.77,0,0,1-.69.29.71.71,0,0,1-.68-.33,3,3,0,0,1-.19-1.29v-.48h-3.62v6.13h7.36V18.17a2.77,2.77,0,0,1,.21-1.37.89.89,0,0,1,.78-.3.88.88,0,0,1,.74.28,1.9,1.9,0,0,1,.21,1.07v3.49a1.06,1.06,0,0,1-.25.76.93.93,0,0,1-.71.26Z"/><path class="cls-2" d="M318,6.42a1,1,0,0,1,.39-.53,1.39,1.39,0,0,1,.72-.15.89.89,0,0,1,.72.25A1.72,1.72,0,0,1,320,7q0,1.35,0,2.52t0,1a1.29,1.29,0,0,1-.22.88,1.08,1.08,0,0,1-.79.23q-.91,0-1.19-1.3l-.15-.59a2.84,2.84,0,0,0-1.26-1.69,4.15,4.15,0,0,0-2.34-.66,4.84,4.84,0,0,0-3.93,1.79A7.3,7.3,0,0,0,308.7,14a7.23,7.23,0,0,0,1.5,4.8,4.92,4.92,0,0,0,4,1.79,6.17,6.17,0,0,0,1.63-.23,7.16,7.16,0,0,0,1.63-.68,9.36,9.36,0,0,0,1-.66,2.05,2.05,0,0,1,.93-.46,1,1,0,0,1,.73.28.93.93,0,0,1,.3.7,1.22,1.22,0,0,1-.32.8,5.58,5.58,0,0,1-1.21.94,9.15,9.15,0,0,1-2.34,1.13,8.36,8.36,0,0,1-2.48.36,7.34,7.34,0,0,1-5.64-2.41,8.75,8.75,0,0,1-2.23-6.17A8.81,8.81,0,0,1,308.43,8a7.36,7.36,0,0,1,5.67-2.46,8.17,8.17,0,0,1,1.86.22A12.55,12.55,0,0,1,318,6.42Z"/><path class="cls-2" d="M327.5,20.41h.94a2.14,2.14,0,0,1,1.13.22.81.81,0,0,1,.33.73.92.92,0,0,1-.29.77,1.91,1.91,0,0,1-1.09.22h-4.65a1,1,0,0,1-.72-.26,1,1,0,0,1-.25-.74.88.88,0,0,1,.28-.73,1.47,1.47,0,0,1,.91-.22h1.26V7.83h-.8a2.92,2.92,0,0,1-1.34-.19.8.8,0,0,1-.3-.73.94.94,0,0,1,.24-.71,1,1,0,0,1,.73-.23h5.84a18.22,18.22,0,0,1,3.16.2,4.73,4.73,0,0,1,1.76.68,4.38,4.38,0,0,1,1.46,1.65,4.69,4.69,0,0,1,.53,2.2,4.06,4.06,0,0,1-1,2.73A5.1,5.1,0,0,1,332.94,15a3.23,3.23,0,0,1,.64.48,4.27,4.27,0,0,1,.55.66l2.78,4.26h.46a1.89,1.89,0,0,1,1.06.21.86.86,0,0,1,.29.74,1,1,0,0,1-.24.74.93.93,0,0,1-.71.26H336.2q-.68,0-1.33-1l-.12-.14-2.66-4a6.09,6.09,0,0,0-1.35-1.59,2.47,2.47,0,0,0-1.4-.36H327.5Zm0-12.58v5.59h2.86a5,5,0,0,0,2.91-.7,2.39,2.39,0,0,0,1-2.08,2.45,2.45,0,0,0-1-2.1,4.77,4.77,0,0,0-2.85-.71Z"/><path class="cls-2" d="M341.67,22.36H341a1,1,0,0,1-.75-.25,1,1,0,0,1-.26-.75.85.85,0,0,1,.3-.75,2.88,2.88,0,0,1,1.36-.2h.88V8h-.88a2.72,2.72,0,0,1-1.35-.21A.88.88,0,0,1,340,7a1,1,0,0,1,.26-.75A1.1,1.1,0,0,1,341,6h12a.89.89,0,0,1,.71.28,1.23,1.23,0,0,1,.24.82v3.26a1.73,1.73,0,0,1-.21,1,.88.88,0,0,1-.75.28.89.89,0,0,1-.78-.3,2.77,2.77,0,0,1-.21-1.37V8h-7.36v4.66h3.62v-.73a1.93,1.93,0,0,1,.2-1,.79.79,0,0,1,.7-.29.72.72,0,0,1,.67.31,3,3,0,0,1,.19,1.33v2.57a2.84,2.84,0,0,1-.19,1.33.77.77,0,0,1-.69.29.72.72,0,0,1-.68-.33,3,3,0,0,1-.19-1.29v-.48h-3.62v6.13h7.36V18.17a2.77,2.77,0,0,1,.21-1.37.89.89,0,0,1,.78-.3.87.87,0,0,1,.74.28,1.89,1.89,0,0,1,.21,1.07v3.49a1.06,1.06,0,0,1-.25.76.93.93,0,0,1-.71.26Z"/><path class="cls-2" d="M362.44,8h-2a2.23,2.23,0,0,1-1.18-.23A.85.85,0,0,1,358.9,7a.9.9,0,0,1,.3-.78A3.57,3.57,0,0,1,360.82,6h3.94a1.85,1.85,0,0,1,1,.2,1.73,1.73,0,0,1,.49.74l5.41,13.51h.24a1.8,1.8,0,0,1,1,.21.88.88,0,0,1,.28.75,1,1,0,0,1-.26.78,1.63,1.63,0,0,1-1,.21h-3.76a2.68,2.68,0,0,1-1.35-.21.9.9,0,0,1-.3-.78.82.82,0,0,1,.33-.74,2.42,2.42,0,0,1,1.22-.21h1.29l-1.34-3.29h-7l-1.19,3.29h1.34a2.5,2.5,0,0,1,1.24.21.81.81,0,0,1,.33.74.9.9,0,0,1-.3.78,2.56,2.56,0,0,1-1.31.21h-3.64a2.18,2.18,0,0,1-1.18-.21.92.92,0,0,1-.29-.78.86.86,0,0,1,.29-.75,2.08,2.08,0,0,1,1.12-.21h.26Zm-.71,7.33h5.66l-3-7.33Z"/><path class="cls-2" d="M376.41,11.55a2.67,2.67,0,0,1-.24,1.32,1,1,0,0,1-.84.28,1,1,0,0,1-.73-.26,1.06,1.06,0,0,1-.24-.75q0-.43,0-.65l.14-4.56a1,1,0,0,1,.28-.74,1.12,1.12,0,0,1,.77-.23h12a1.12,1.12,0,0,1,.77.23,1,1,0,0,1,.26.74l.15,4.56c0,.17,0,.32,0,.47s0,.22,0,.21a1,1,0,0,1-.26.74,1.13,1.13,0,0,1-.79.24.89.89,0,0,1-.76-.28,2.76,2.76,0,0,1-.24-1.32L386.63,8h-4V20.41h2.67a1.27,1.27,0,0,1,.84.23.91.91,0,0,1,.26.73,1,1,0,0,1-.25.74,1,1,0,0,1-.72.26h-7.76a1,1,0,0,1-.72-.26,1,1,0,0,1-.25-.74.9.9,0,0,1,.27-.73,1.47,1.47,0,0,1,.92-.22h2.59V8h-4Z"/><path class="cls-2" d="M406.06,14.15a9.15,9.15,0,0,1-2.1,6.22,7.15,7.15,0,0,1-10.74,0,9.14,9.14,0,0,1-2.11-6.21,9.18,9.18,0,0,1,2.09-6.23,7.18,7.18,0,0,1,10.76,0A9.16,9.16,0,0,1,406.06,14.15Zm-7.48,6.69a4.33,4.33,0,0,0,3.66-1.78,8,8,0,0,0,1.33-4.91,8,8,0,0,0-1.33-4.91,4.66,4.66,0,0,0-7.32,0,8.09,8.09,0,0,0-1.32,4.93,8,8,0,0,0,1.33,4.91A4.31,4.31,0,0,0,398.57,20.84Z"/><path class="cls-2" d="M412.49,20.41h.94a2.14,2.14,0,0,1,1.13.22.81.81,0,0,1,.33.73.92.92,0,0,1-.29.77,1.91,1.91,0,0,1-1.09.22h-4.65a1,1,0,0,1-.72-.26,1,1,0,0,1-.25-.74.88.88,0,0,1,.28-.73,1.47,1.47,0,0,1,.91-.22h1.26V7.83h-.8a2.92,2.92,0,0,1-1.34-.19.8.8,0,0,1-.3-.73.94.94,0,0,1,.24-.71,1,1,0,0,1,.73-.23h5.84a18.22,18.22,0,0,1,3.16.2,4.73,4.73,0,0,1,1.76.68,4.38,4.38,0,0,1,1.46,1.65,4.69,4.69,0,0,1,.53,2.2,4.06,4.06,0,0,1-1,2.73A5.1,5.1,0,0,1,417.92,15a3.23,3.23,0,0,1,.64.48,4.27,4.27,0,0,1,.55.66l2.78,4.26h.46a1.89,1.89,0,0,1,1.06.21.86.86,0,0,1,.29.74,1,1,0,0,1-.24.74.93.93,0,0,1-.71.26h-1.56q-.68,0-1.33-1l-.12-.14-2.66-4a6.09,6.09,0,0,0-1.35-1.59,2.47,2.47,0,0,0-1.4-.36h-1.84Zm0-12.58v5.59h2.86a5,5,0,0,0,2.91-.7,2.39,2.39,0,0,0,1-2.08,2.45,2.45,0,0,0-1-2.1,4.77,4.77,0,0,0-2.85-.71Z"/><path class="cls-2" d="M99.71,58.63l-4.4-11.77h51.82L136.24,91.33l1,.49c1.79-2.06,3.56-4.14,5.36-6.19,19.09-21.75,43.41-31,72-29.66a32.35,32.35,0,0,1,13.81,3.46c4.21,2.34,6.92,1.69,10.07-1a41.79,41.79,0,0,1,4.08-2.73l31,31.82c-8,5.54-15.07,10.41-22.11,15.25-7.51,5.16-15,10.37-22.59,15.42-1.51,1-3.15,3.36-5.25.17C208.78,96,187,102.95,176.67,120.49c-6.67,11.32-10.54,23.56-7.11,36.9,2.1,8.17,6,15.37,15,17.53,10.19,2.44,19-.22,26-8.29a16.72,16.72,0,0,0,1.92-2.88c.21-.38.08-1,.13-2H190.89c1.39-4.23,2.46-7.61,3.62-11,2.73-7.84,5.57-15.63,8.26-23.49,1-2.88,2.43-3.51,5.58-3.08,4.16.57,8.49-.15,12.75-.16,13.4,0,26.81-.3,40.2.11,5.55.17,8.27-2,10.2-6.86a97.17,97.17,0,0,1,26-37.13c18.21-16.3,39.36-25.32,64.06-24.36,20.25.79,36.84,8.83,48.14,26.3.33.51,1,.82,2.13,1.73,2.06-6.45,4.15-12.46,5.86-18.56,1.31-4.67,3.16-7.18,8.9-6.61,7.79.78,15.72.19,24.21.19l-5.54-11,1-1c11.47,3.17,22.87,6.64,34.45,9.39,6.14,1.46,12.57,1.78,18.89,2.46,25.8,2.77,37.65,21.31,41.82,40.74,2.34,10.92-.25,20.86-4.61,31.12-4.59,10.8-11.39,19.34-19.94,26.82-2.77,2.42-6.14,4.17-9.43,6.35l31.57,53.92h-33.2c-6.5,0-13-.27-19.49.08-3.67.2-5.29-1.19-6.55-4.41-3.88-10-8-19.86-12.1-29.77-.29-.7-.84-1.29-2.45-1.86l-3.84,35.71H409.37L425,101.91h-6.37c0,8.12.83,16.16-.22,23.94a127,127,0,0,1-6.5,27.26,129.42,129.42,0,0,1-13.42,26.67c-10.19,15.21-24.19,26-41.35,33.05-19.39,8-38.8,9.71-58.58,2.86-19.5-6.76-30.44-21.28-34.9-41.07-.22-1-.43-1.92-.68-2.87,0-.11-.25-.18-.72-.49-.48.28-1.51.5-1.71,1C256.47,183,249.07,191,240.6,198.44c-8.21,7.17-17.17,13.06-27.48,16.45-24.83,8.16-48.93,8-71.15-7.87-7.69-5.5-13.2-12.92-18-22.87-1.67,6.45-3,11.44-4.26,16.44-.74,2.9-1.42,5.81-2.14,8.71-2.07,8.3-2.08,8.31-10.33,8.3H0c1-4.68,1.87-8.77,2.86-12.83,2.55-10.49,5.32-20.92,7.66-31.45.67-3,2-3.65,4.71-3.6,8.83.15,17.67-.11,26.5.15,3.56.11,5-1.24,5.86-4.5,1.32-5.12,3.06-10.14,4.85-15.9L43,150.64l13.64-44H26c2.06-8.78,3.91-16.78,5.82-24.77,1.55-6.46,3.44-12.86,4.7-19.37.63-3.23,2.08-3.91,5-3.89,17.5.11,35,.05,52.5.05ZM315.48,135.3l6.85.46a43.67,43.67,0,0,1-1.56,5.63c-2.72,6.45-5.44,13.05-2.29,19.92,4.39,9.55,15.68,12.19,26.55,6.7a41.53,41.53,0,0,0,22.48-40.1c-.8-10-5.9-17.17-14.92-19.33-6.68-1.6-13.26-1.5-19.52,3A45.67,45.67,0,0,0,315.48,135.3ZM105.3,127.08l-12.77,42.1h26.85c-3.26-21.92.55-42.34,9-62.66-8.19,0-15.17-.06-22.14.07-.94,0-2.44.73-2.7,1.46-2.24,6.35-4.25,12.78-6.59,20Zm364.83,2c6.47.88,12.19.47,17.24-2.87s7.54-13.53,5-19c-2.12-4.59-10.52-7.53-16.78-5.74-.8.23-1.9,1.08-2,1.78C472.38,111.78,471.3,120.28,470.13,129.12Z"/></g></g></g></svg>